<?xml version="1.0" standalone="no"?>
<!DOCTYPE svg PUBLIC "-//W3C//DTD SVG 20010904//EN"
 "http://www.w3.org/TR/2001/REC-SVG-20010904/DTD/svg10.dtd">
<svg version="1.0" xmlns="http://www.w3.org/2000/svg"
 width="2560.000000pt" height="2560.000000pt" viewBox="0 0 2560.000000 2560.000000"
 preserveAspectRatio="xMidYMid meet">
<metadata>
Created by potrace 1.14, written by Peter Selinger 2001-2017
</metadata>
<g transform="translate(0.000000,2560.000000) scale(0.100000,-0.100000)"
fill="#000000" stroke="none">
<path d="M9547 24013 c-1 -1 -47 -4 -102 -7 -55 -3 -109 -8 -120 -10 -18 -3
-100 -12 -195 -22 -38 -3 -100 -12 -146 -20 -51 -9 -248 -46 -264 -50 -8 -2
-46 -11 -85 -19 -85 -19 -240 -63 -325 -93 -8 -3 -17 -6 -20 -7 -3 -1 -16 -6
-30 -12 -14 -6 -52 -20 -85 -32 -161 -60 -389 -193 -550 -321 -68 -54 -348
-327 -380 -371 -6 -8 -33 -43 -61 -79 -130 -169 -262 -413 -301 -555 -27 -100
-32 -180 -14 -227 17 -44 76 -76 196 -104 46 -11 397 -13 457 -2 154 26 224
41 303 62 33 9 70 19 83 22 32 7 198 68 265 98 31 14 59 26 62 26 6 0 88 41
175 88 218 117 480 336 655 547 28 33 52 62 55 65 3 3 28 34 55 70 28 36 52
67 55 70 3 3 16 22 30 42 14 21 28 38 33 38 4 0 7 4 7 10 0 8 45 74 80 117 6
7 10 15 10 18 0 3 15 26 33 52 17 27 37 57 44 68 7 11 31 52 55 90 23 39 48
79 54 90 50 87 82 146 134 248 l61 118 -111 -3 c-62 -2 -112 -4 -113 -5z"/>
<path d="M15840 24016 c0 -11 35 -82 49 -98 8 -10 11 -18 7 -18 -7 0 2 -17 85
-160 24 -41 44 -77 44 -80 0 -3 8 -16 16 -30 9 -14 33 -54 54 -90 52 -89 201
-312 226 -338 11 -12 16 -22 12 -22 -4 0 -3 -4 2 -8 6 -4 26 -27 45 -52 19
-25 38 -46 42 -48 5 -2 8 -10 8 -17 0 -7 3 -15 8 -17 4 -1 39 -41 78 -88 142
-169 334 -349 479 -451 117 -82 348 -209 379 -209 8 0 16 -4 18 -8 4 -10 149
-67 248 -99 108 -34 253 -69 340 -83 41 -6 88 -14 104 -16 81 -13 296 -19 371
-10 26 3 111 17 125 21 3 1 19 5 35 10 42 11 102 51 115 75 20 38 18 122 -7
213 -21 78 -92 252 -115 283 -4 6 -22 37 -38 68 -17 32 -43 75 -58 96 -15 21
-34 48 -42 60 -24 36 -106 140 -158 199 -80 92 -265 271 -280 271 -6 0 -12 4
-14 9 -7 19 -204 164 -289 213 -98 57 -269 137 -377 177 -120 44 -355 113
-443 130 -30 6 -65 13 -79 15 -45 10 -74 15 -105 21 -158 27 -208 35 -255 40
-30 3 -73 7 -95 10 -172 19 -190 21 -402 31 -73 3 -133 3 -133 0z"/>
<path d="M5844 23312 c-17 -15 -51 -44 -76 -65 -105 -85 -464 -451 -563 -574
-5 -7 -15 -18 -20 -25 -120 -149 -305 -422 -305 -449 0 -5 -5 -9 -12 -9 -6 0
-8 -3 -5 -7 4 -3 1 -13 -7 -22 -8 -9 -14 -18 -14 -21 1 -3 -17 -44 -40 -93
-23 -48 -42 -92 -42 -97 0 -6 -4 -18 -9 -28 -13 -22 -59 -169 -65 -205 -3 -16
-10 -43 -15 -60 -9 -28 -26 -122 -36 -197 -26 -195 -26 -472 0 -627 3 -18 7
-45 9 -60 9 -58 16 -93 25 -115 5 -13 9 -27 10 -33 3 -30 34 -121 48 -141 8
-13 11 -24 7 -24 -5 0 -4 -4 1 -8 6 -4 16 -19 24 -34 7 -15 28 -42 45 -60 17
-18 40 -44 51 -58 47 -57 156 -112 325 -163 106 -32 144 -41 225 -53 17 -2 40
-6 52 -8 42 -9 203 -18 310 -19 232 -1 448 31 673 99 107 33 138 45 285 118
139 69 181 93 350 202 56 35 304 219 315 233 3 3 34 31 70 61 155 131 226 197
347 319 72 74 94 101 79 101 -2 0 -82 20 -178 45 -167 43 -240 59 -318 71 -19
3 -43 7 -52 10 -10 3 -28 7 -40 9 -48 8 -175 25 -219 30 -26 3 -56 7 -66 9
-94 19 -477 26 -628 13 -169 -16 -326 -50 -483 -106 -117 -41 -121 -41 -83 19
9 13 15 25 14 27 -2 2 4 19 32 88 5 11 9 22 10 25 1 3 7 17 13 31 6 15 16 46
23 70 7 24 14 49 15 54 2 6 5 17 7 25 2 8 7 26 10 40 4 14 9 37 12 53 3 15 7
37 9 50 12 60 27 178 33 251 14 168 7 589 -12 716 -5 33 -23 173 -30 235 -4
28 -8 57 -10 65 -3 8 -7 33 -10 55 -4 22 -8 48 -11 57 -3 9 -7 27 -9 40 -22
120 -29 154 -35 160 -3 4 -19 -5 -36 -20z"/>
<path d="M19719 23333 c-2 -19 -11 -61 -24 -112 -7 -31 -16 -76 -20 -101 -3
-25 -8 -56 -10 -70 -9 -47 -14 -85 -20 -130 -3 -25 -7 -54 -9 -65 -2 -11 -7
-51 -11 -90 -4 -38 -9 -78 -11 -89 -16 -85 -23 -551 -10 -666 3 -30 8 -80 10
-110 3 -30 8 -66 10 -80 3 -14 8 -41 10 -60 17 -118 94 -354 162 -494 8 -16
14 -30 14 -32 0 -2 -30 8 -67 22 -92 35 -138 50 -213 69 -3 0 -21 4 -40 8 -19
4 -46 9 -60 12 -14 3 -40 8 -59 11 -18 3 -42 7 -52 9 -122 24 -508 24 -719 0
-78 -9 -136 -16 -160 -20 -14 -2 -45 -7 -70 -10 -25 -4 -54 -9 -65 -11 -11 -2
-33 -7 -49 -10 -153 -27 -534 -119 -545 -130 -9 -9 186 -200 345 -340 37 -32
77 -68 90 -79 12 -11 37 -32 55 -47 19 -14 44 -35 57 -45 35 -28 62 -49 127
-98 33 -25 65 -49 72 -55 7 -5 14 -10 17 -10 8 0 101 -64 104 -72 2 -5 8 -8
13 -8 5 0 34 -16 66 -36 163 -105 514 -255 648 -278 17 -2 64 -11 105 -20 149
-29 260 -39 425 -39 90 0 249 10 300 19 11 2 43 6 70 9 204 25 469 131 544
218 9 11 31 35 50 55 18 21 47 66 63 102 16 36 33 72 37 80 7 13 17 50 26 90
1 3 4 14 8 25 3 11 8 31 11 45 2 14 7 36 10 50 22 94 31 206 30 385 -1 158
-11 341 -19 355 -3 4 -7 25 -11 46 -11 74 -37 188 -55 239 -6 17 -12 39 -14
50 -1 11 -4 21 -5 23 -1 1 -3 5 -4 10 -1 4 -7 23 -15 42 -7 19 -16 44 -20 55
-5 11 -21 47 -36 80 -16 33 -29 62 -30 65 -4 13 -30 66 -36 70 -3 3 -12 20
-20 38 -8 17 -17 32 -21 32 -5 0 -8 6 -8 13 0 14 -129 210 -142 215 -4 2 -8 8
-8 13 0 8 -85 125 -101 139 -3 3 -12 15 -20 26 -51 76 -435 470 -579 596 -122
107 -119 105 -121 91z"/>
<path d="M3399 20909 c-24 -29 -50 -58 -57 -65 -7 -8 -11 -14 -8 -14 3 0 -5
-11 -17 -23 -25 -26 -57 -67 -113 -142 -21 -27 -40 -52 -43 -55 -18 -16 -221
-319 -221 -330 0 -5 -4 -10 -9 -10 -5 0 -16 -15 -25 -34 -8 -18 -32 -56 -51
-85 -19 -28 -32 -51 -29 -51 4 0 1 -8 -7 -17 -30 -38 -189 -353 -189 -375 0
-8 -4 -18 -9 -23 -24 -25 -130 -343 -147 -442 -2 -13 -6 -35 -9 -50 -7 -43
-24 -172 -30 -233 -11 -113 -5 -398 10 -515 2 -22 7 -58 10 -80 6 -45 7 -50
29 -155 60 -282 174 -551 280 -663 80 -83 186 -157 226 -157 10 0 21 -4 24 -9
3 -4 20 -12 38 -16 18 -4 40 -9 48 -12 8 -2 67 -12 130 -23 92 -14 157 -17
320 -14 113 1 216 5 230 7 14 3 50 8 80 12 30 3 98 15 150 26 52 11 104 22
116 25 108 21 415 138 549 207 61 32 323 204 345 227 3 3 43 37 90 75 158 131
339 309 485 480 28 32 59 68 70 81 11 12 31 36 45 53 14 17 36 44 50 60 14 16
50 64 80 107 30 42 60 82 65 88 6 6 26 34 45 61 19 28 37 52 40 55 3 3 17 24
32 46 l27 42 -52 6 c-92 11 -140 16 -232 22 -49 3 -115 7 -145 9 -61 5 -486 5
-565 1 -57 -3 -212 -17 -235 -21 -8 -2 -44 -6 -80 -10 -36 -4 -87 -11 -115
-16 -27 -5 -66 -12 -85 -15 -217 -33 -550 -156 -757 -279 -51 -30 -51 -29 -23
81 11 43 23 92 26 108 3 16 7 32 9 36 2 4 7 31 10 61 3 30 9 74 12 99 14 97 5
540 -11 600 -3 8 -7 38 -11 65 -3 28 -12 86 -20 130 -8 44 -17 94 -20 110 -3
17 -10 48 -15 70 -6 22 -12 51 -14 65 -3 14 -5 26 -7 28 -1 1 -2 5 -3 10 -40
176 -143 506 -219 701 -23 58 -41 109 -42 113 -1 22 -17 12 -56 -33z"/>
<path d="M22140 20937 c0 -7 -15 -51 -34 -98 -34 -88 -42 -107 -46 -124 -1 -5
-20 -59 -42 -120 -21 -60 -39 -112 -40 -115 -1 -6 -1 -6 -23 -80 -9 -30 -19
-62 -22 -70 -4 -8 -6 -18 -5 -21 1 -4 -3 -22 -9 -40 -11 -38 -10 -33 -39 -154
-24 -100 -26 -107 -34 -159 -3 -19 -10 -55 -15 -78 -11 -48 -37 -231 -47 -323
-10 -93 -11 -439 -2 -508 13 -102 28 -183 43 -247 3 -14 8 -34 10 -45 2 -11 8
-36 14 -55 18 -58 15 -64 -21 -40 -51 33 -331 170 -350 170 -9 0 -19 4 -22 9
-3 5 -18 11 -33 14 -16 3 -59 15 -98 26 -38 12 -81 24 -95 27 -14 3 -50 11
-80 19 -31 8 -73 17 -95 20 -22 3 -53 9 -70 12 -32 6 -40 8 -120 17 -27 3 -59
8 -70 10 -26 5 -172 17 -260 22 -89 5 -481 4 -560 -1 -149 -9 -335 -24 -365
-30 -8 -2 -25 -4 -38 -4 -23 -1 -23 -2 9 -48 18 -27 36 -49 41 -51 4 -2 8 -8
8 -12 0 -8 81 -123 112 -159 7 -8 29 -38 50 -65 46 -63 38 -53 128 -161 91
-110 126 -149 264 -295 40 -41 147 -144 242 -230 148 -135 379 -294 552 -380
102 -51 288 -126 332 -135 8 -2 16 -4 18 -5 1 -2 5 -3 10 -4 4 -1 32 -9 62
-18 65 -20 229 -56 282 -62 21 -2 41 -7 45 -9 44 -27 546 -29 669 -3 12 2 39
7 60 11 188 29 335 125 445 289 21 32 39 62 39 67 0 4 9 24 21 43 12 20 17 36
12 36 -4 0 -3 4 4 8 23 15 126 331 148 457 2 17 7 39 9 50 39 198 49 540 22
750 -12 90 -17 121 -21 135 -2 8 -6 33 -10 55 -3 22 -13 65 -21 95 -9 30 -18
62 -19 70 -11 46 -83 245 -115 315 -70 156 -179 367 -192 373 -5 2 -8 8 -8 13
0 5 -27 52 -60 105 -33 52 -60 99 -60 105 0 5 -4 9 -10 9 -5 0 -10 7 -10 15 0
8 -4 15 -8 15 -5 0 -14 10 -19 23 -14 29 -191 278 -209 293 -8 6 -14 16 -14
23 0 6 -4 11 -10 11 -5 0 -10 6 -10 14 0 8 -4 16 -9 18 -5 2 -32 31 -59 66
-28 35 -67 83 -88 107 -36 44 -64 58 -64 32z"/>
<path d="M1250 18121 c-42 -93 -99 -219 -110 -246 -28 -69 -65 -160 -66 -165
0 -3 -5 -16 -11 -30 -6 -14 -27 -74 -48 -135 -21 -60 -44 -122 -52 -137 -7
-16 -11 -28 -8 -28 3 0 -1 -16 -9 -35 -8 -19 -13 -35 -11 -35 3 0 -2 -17 -10
-37 -31 -83 -122 -430 -138 -528 -3 -16 -10 -57 -16 -90 -6 -33 -13 -76 -16
-95 -3 -19 -7 -46 -10 -60 -34 -194 -39 -561 -10 -755 3 -16 7 -48 10 -70 6
-43 25 -148 41 -222 14 -69 71 -265 93 -318 30 -74 115 -285 124 -310 7 -16
14 -32 17 -35 3 -3 25 -43 49 -90 62 -121 183 -307 266 -409 39 -48 181 -188
220 -218 22 -16 65 -41 95 -55 161 -75 186 -81 330 -81 81 -1 225 9 266 17 10
3 55 12 99 21 44 9 89 19 99 21 92 18 458 144 480 165 6 5 17 9 25 9 8 0 22 7
32 16 9 8 23 17 31 19 37 9 58 18 58 26 0 5 3 8 8 7 21 -6 369 207 472 288
209 166 320 275 463 454 37 47 76 96 87 108 11 13 20 26 20 28 0 6 41 64 57
81 6 7 33 48 59 91 27 42 51 79 54 82 4 3 17 25 31 50 13 25 30 51 37 58 6 7
12 19 12 27 0 7 3 15 8 17 4 2 25 37 46 78 22 41 44 78 49 81 5 3 8 9 8 13 0
3 35 78 79 166 44 88 80 164 81 168 3 12 16 45 44 107 48 105 122 292 168 420
13 39 32 90 41 115 9 25 16 49 16 53 0 7 -55 4 -130 -8 -73 -12 -337 -67 -435
-90 -38 -9 -77 -18 -85 -20 -8 -2 -42 -11 -75 -20 -33 -9 -67 -18 -75 -20 -41
-9 -109 -28 -145 -40 -22 -7 -87 -28 -145 -46 -58 -18 -112 -36 -120 -40 -8
-5 -55 -22 -105 -40 -49 -17 -109 -40 -132 -50 -23 -11 -45 -19 -48 -19 -12 0
-170 -75 -176 -83 -3 -5 -10 -9 -15 -9 -18 0 -233 -113 -286 -149 -14 -11 -29
-19 -32 -19 -12 0 -227 -157 -300 -219 -17 -14 -78 -72 -136 -128 -57 -56
-106 -100 -108 -99 -1 2 -5 66 -7 142 -3 77 -7 157 -9 179 -9 84 -16 141 -21
165 -3 14 -7 39 -10 55 -5 27 -9 48 -31 140 -4 17 -8 35 -9 41 -2 6 -15 51
-31 100 -15 49 -28 91 -29 94 -1 9 -47 135 -62 169 -8 18 -16 39 -18 45 -10
48 -198 443 -252 528 -12 21 -23 44 -23 53 0 8 -4 15 -9 15 -4 0 -19 23 -32
50 -13 28 -27 50 -32 50 -4 0 -5 5 -2 10 3 6 1 10 -4 10 -6 0 -11 5 -11 10 0
6 -18 38 -40 71 -22 33 -40 63 -40 65 0 6 -241 366 -250 374 -3 3 -17 21 -30
40 -13 19 -27 37 -30 40 -3 3 -17 21 -30 40 -13 19 -27 37 -30 40 -3 3 -13 14
-21 26 -13 20 -16 17 -49 -55z"/>
<path d="M24279 18146 c-19 -24 -43 -57 -54 -72 -11 -16 -28 -36 -37 -46 -10
-10 -18 -22 -18 -28 0 -5 -4 -10 -10 -10 -5 0 -10 -6 -10 -14 0 -8 -3 -16 -7
-18 -21 -9 -224 -325 -357 -553 -113 -194 -314 -605 -331 -675 -2 -8 -15 -43
-29 -77 -14 -35 -26 -67 -26 -72 0 -5 -4 -20 -9 -33 -5 -13 -10 -27 -11 -33
-1 -5 -8 -26 -16 -45 -10 -28 -28 -85 -39 -130 -6 -25 -16 -69 -20 -88 -2 -13
-6 -31 -9 -40 -7 -22 -15 -66 -22 -117 -3 -22 -7 -51 -9 -64 -10 -62 -19 -197
-19 -303 l-1 -117 -76 77 c-76 78 -121 119 -199 182 -24 19 -48 40 -54 45 -6
6 -27 22 -46 35 -19 13 -37 27 -40 30 -3 3 -32 23 -65 44 -33 21 -71 46 -85
55 -14 10 -32 21 -40 24 -8 4 -42 23 -75 42 -80 47 -248 129 -257 127 -5 -1
-8 2 -8 8 0 5 -8 10 -18 10 -10 0 -22 4 -27 8 -6 5 -30 17 -55 26 -25 10 -58
24 -75 31 -118 52 -528 188 -633 210 -9 2 -87 22 -172 44 -133 34 -382 87
-500 105 -19 3 -56 9 -82 14 -27 5 -48 6 -48 1 0 -9 55 -170 83 -244 8 -22 18
-49 23 -60 4 -11 8 -22 9 -25 1 -3 7 -18 14 -35 14 -37 22 -59 22 -62 0 -2 21
-51 48 -110 26 -60 54 -124 62 -143 21 -50 160 -331 178 -359 8 -13 16 -30 17
-38 2 -8 10 -23 18 -32 9 -10 16 -20 16 -24 0 -13 231 -389 250 -407 3 -3 25
-34 50 -70 24 -36 49 -70 55 -76 5 -6 21 -25 35 -43 14 -18 30 -38 35 -44 6
-7 25 -30 44 -52 86 -101 227 -239 326 -317 33 -27 67 -54 75 -61 8 -8 44 -33
80 -57 36 -24 67 -47 68 -52 2 -4 8 -8 13 -8 4 0 39 -20 76 -43 37 -24 93 -57
123 -73 30 -16 57 -32 58 -37 2 -4 7 -5 12 -2 4 3 13 -2 20 -10 7 -8 16 -15
20 -15 4 0 55 -22 113 -50 58 -27 112 -50 119 -50 8 0 18 -4 24 -9 16 -16 236
-88 366 -120 223 -55 466 -78 608 -57 62 9 190 62 265 109 101 64 290 269 380
413 115 184 222 384 207 384 -4 0 -2 4 4 8 11 7 121 271 129 309 2 10 10 37
19 61 8 23 15 43 15 45 0 1 2 9 5 17 8 27 64 264 71 305 18 102 22 133 32 225
14 134 5 582 -12 610 -2 3 -7 37 -10 75 -4 39 -9 73 -11 76 -2 4 -6 24 -9 45
-3 22 -10 59 -15 84 -5 25 -12 56 -14 70 -2 14 -12 57 -21 95 -9 39 -19 79
-21 90 -3 11 -7 31 -10 45 -2 14 -13 52 -24 85 -10 33 -20 71 -22 85 -2 14 -7
31 -11 37 -5 7 -10 21 -12 30 -4 23 -54 182 -65 208 -23 56 -90 247 -90 258 0
7 -5 18 -12 25 -6 6 -13 17 -14 24 -1 7 -8 27 -15 43 -7 17 -13 32 -14 35 -1
3 -7 19 -14 35 -8 17 -17 39 -21 50 -4 11 -24 56 -45 100 -20 44 -38 85 -39
90 -3 13 -36 75 -40 75 -2 0 -19 -20 -37 -44z"/>
<path d="M109 14283 c-1 -16 -3 -37 -4 -48 -4 -32 -14 -142 -22 -240 -8 -95
-8 -808 0 -860 3 -16 8 -61 11 -100 3 -38 8 -83 11 -100 2 -16 6 -48 9 -70 12
-97 32 -223 42 -265 3 -14 8 -36 10 -50 3 -14 7 -33 10 -42 3 -9 6 -25 8 -35
2 -10 11 -45 21 -78 9 -33 20 -73 24 -90 25 -92 166 -423 190 -445 4 -3 19
-30 35 -60 43 -81 198 -315 227 -340 3 -3 12 -15 20 -27 68 -99 320 -353 464
-468 28 -21 52 -42 55 -45 3 -3 59 -42 125 -86 146 -97 289 -169 385 -193 122
-31 197 -17 239 45 26 37 46 49 97 57 114 18 370 134 524 237 65 43 146 97
159 105 9 6 18 12 21 15 3 3 30 25 60 50 30 24 62 51 71 60 10 8 36 31 60 50
111 89 348 346 419 452 14 21 28 38 33 38 4 0 7 6 7 14 0 8 3 16 8 18 10 4
113 160 157 238 30 53 73 146 145 315 5 11 14 38 21 60 7 22 16 45 20 50 6 8
32 95 42 140 2 6 6 16 10 23 5 6 6 12 2 12 -3 0 -1 8 4 19 6 10 13 33 16 52 3
19 12 57 20 84 7 28 16 64 19 80 3 17 12 61 21 98 8 38 13 73 9 78 -3 5 -1 9
4 9 5 0 9 6 9 13 2 36 12 108 16 114 3 5 8 35 12 68 3 32 8 62 10 65 1 3 6 39
10 80 3 41 8 82 10 90 3 8 7 56 10 105 3 50 8 110 10 135 2 25 7 154 11 288 6
233 6 242 -12 235 -38 -14 -230 -116 -246 -131 -10 -8 -18 -12 -18 -8 0 4 -12
-1 -27 -12 -16 -10 -89 -54 -163 -97 -74 -43 -137 -81 -140 -84 -3 -4 -41 -29
-85 -56 -44 -27 -82 -52 -85 -55 -3 -3 -27 -22 -55 -41 -27 -18 -56 -40 -63
-46 -7 -7 -17 -13 -21 -13 -4 0 -16 -8 -27 -18 -10 -10 -41 -33 -69 -52 -46
-33 -82 -61 -109 -85 -6 -6 -41 -34 -78 -63 -36 -29 -68 -56 -70 -60 -2 -4
-25 -25 -53 -47 -93 -74 -363 -353 -404 -415 -9 -14 -26 -36 -38 -50 -13 -14
-23 -28 -23 -32 0 -3 -6 -13 -13 -20 -24 -25 -197 -309 -197 -323 0 -2 -16
-38 -36 -80 l-36 -77 -25 58 c-13 33 -26 66 -28 75 -5 22 -155 318 -169 332
-6 7 -34 46 -60 87 -142 217 -391 490 -686 750 -40 36 -78 70 -84 75 -18 17
-130 108 -166 135 -18 14 -39 31 -46 38 -7 6 -17 12 -22 12 -6 0 -12 3 -14 8
-5 12 -96 82 -106 82 -6 0 -12 4 -14 8 -1 5 -32 29 -66 53 -35 24 -73 51 -85
59 -12 8 -23 18 -25 23 -2 4 -8 7 -13 7 -10 0 -103 62 -107 73 -2 4 -8 7 -14
7 -6 0 -30 14 -55 30 -24 17 -46 30 -49 30 -2 0 -5 -12 -5 -27z"/>
<path d="M25420 14273 c-30 -20 -56 -40 -58 -45 -2 -4 -9 -8 -15 -8 -7 0 -52
-29 -102 -64 -49 -36 -112 -79 -138 -98 -27 -18 -54 -37 -60 -43 -7 -5 -39
-30 -72 -54 -33 -25 -61 -48 -63 -53 -2 -4 -8 -8 -13 -8 -5 0 -17 -8 -27 -17
-11 -10 -28 -25 -38 -33 -30 -23 -128 -104 -140 -115 -6 -5 -44 -39 -84 -75
-240 -212 -392 -370 -552 -574 -48 -61 -92 -116 -98 -123 -5 -7 -10 -15 -10
-18 0 -4 -11 -21 -24 -38 -40 -53 -126 -198 -126 -212 0 -7 -3 -15 -8 -17 -7
-3 -93 -183 -96 -203 -1 -5 -4 -14 -7 -20 -4 -5 -12 -27 -19 -49 l-12 -39 -72
139 c-116 224 -189 338 -320 494 -87 104 -275 293 -376 380 -41 35 -77 66 -80
70 -3 3 -23 19 -45 35 -22 16 -44 34 -50 40 -16 17 -167 130 -290 217 -123 87
-155 108 -165 108 -5 0 -10 4 -10 9 0 5 -13 14 -30 21 -16 7 -30 16 -30 21 0
5 -6 9 -14 9 -8 0 -16 3 -18 8 -1 4 -21 16 -42 27 -22 11 -44 25 -50 30 -6 6
-31 21 -56 34 -25 14 -48 29 -52 35 -4 6 -8 7 -8 3 0 -5 -12 0 -27 11 -43 30
-325 182 -338 182 -11 0 8 -590 20 -611 3 -4 1 -10 -5 -14 -6 -4 -7 -12 -3
-18 9 -15 10 -22 17 -114 3 -40 8 -84 11 -96 2 -12 7 -44 10 -72 3 -27 8 -59
11 -70 2 -11 6 -36 8 -55 2 -19 7 -51 10 -70 3 -19 8 -46 10 -60 12 -71 40
-198 67 -305 17 -66 32 -124 33 -130 1 -5 7 -23 13 -40 6 -16 23 -68 38 -115
52 -165 123 -330 205 -475 36 -66 154 -239 168 -248 6 -4 12 -13 12 -18 0 -6
6 -17 13 -24 6 -8 17 -20 22 -27 134 -173 318 -361 485 -497 14 -11 32 -27 40
-34 8 -8 34 -27 58 -42 23 -15 42 -32 42 -36 0 -5 4 -9 10 -9 9 0 162 -97 187
-120 7 -5 15 -10 19 -10 4 0 38 -18 76 -40 39 -22 76 -40 83 -40 7 0 15 -4 17
-8 7 -17 214 -89 310 -107 20 -4 77 -60 78 -76 0 -4 17 -14 38 -22 100 -40
297 23 522 167 111 71 98 62 177 126 34 27 64 50 67 50 7 0 64 51 179 160 77
74 190 198 282 312 32 40 159 223 195 283 47 76 160 292 178 340 43 113 55
145 67 180 14 42 45 149 50 175 2 8 12 53 23 100 19 80 45 224 56 315 21 159
31 264 41 435 5 74 5 488 0 575 -10 185 -19 294 -30 385 -2 14 -4 35 -4 48 -1
28 -5 28 -71 -15z"/>
<path d="M3884 11352 c-10 -10 -37 -40 -59 -66 -22 -27 -49 -58 -60 -70 -11
-12 -36 -42 -55 -66 -19 -24 -57 -72 -85 -106 -27 -34 -57 -72 -65 -84 -8 -12
-23 -32 -33 -43 -10 -12 -26 -34 -35 -49 -9 -16 -20 -28 -24 -28 -4 0 -8 -6
-8 -14 0 -8 -4 -16 -9 -18 -12 -4 -211 -304 -211 -317 0 -6 -4 -11 -10 -11 -5
0 -10 -7 -10 -15 0 -8 -4 -15 -10 -15 -5 0 -10 -4 -10 -9 0 -7 -19 -43 -71
-129 -8 -15 -30 -54 -48 -87 -18 -33 -38 -66 -43 -72 -6 -7 -7 -13 -4 -13 4 0
-2 -13 -13 -29 -12 -16 -21 -32 -21 -35 0 -4 -18 -44 -40 -90 -22 -46 -40 -87
-40 -92 0 -5 -6 -20 -13 -34 -11 -22 -49 -116 -53 -130 0 -3 -3 -12 -7 -20 -6
-17 -30 -90 -33 -105 -2 -5 -12 -41 -23 -80 -12 -38 -23 -79 -26 -90 -2 -11
-6 -29 -8 -40 -3 -11 -10 -56 -16 -100 -7 -44 -14 -96 -17 -115 -5 -32 -8 -69
-15 -177 -2 -24 -4 -43 -6 -43 -2 0 -70 67 -151 149 -186 189 -367 325 -625
470 -73 40 -176 91 -187 91 -5 0 -10 4 -10 9 0 5 -10 12 -22 16 -13 4 -25 8
-28 9 -3 1 -39 18 -81 38 -42 19 -130 57 -195 83 -66 26 -128 51 -139 55 -22
10 -159 58 -250 88 -77 26 -228 72 -255 77 -11 2 -25 7 -30 10 -5 3 -18 8 -27
10 -10 2 -82 20 -160 39 -78 20 -144 36 -148 36 -7 0 0 -40 21 -110 9 -30 17
-62 18 -70 5 -28 113 -375 126 -405 5 -11 25 -63 44 -115 72 -195 165 -413
178 -418 4 -2 8 -11 8 -19 0 -14 60 -132 148 -295 47 -86 145 -243 154 -246 4
-2 8 -10 8 -18 0 -8 3 -14 8 -14 4 0 16 -16 26 -35 11 -19 23 -35 28 -35 4 0
8 -4 8 -10 0 -14 122 -166 194 -240 57 -58 147 -143 231 -215 90 -78 357 -265
385 -270 3 0 16 -8 30 -16 38 -24 124 -73 130 -74 3 -1 38 -18 78 -38 176 -90
463 -185 617 -204 22 -2 56 -9 75 -14 19 -5 89 -7 155 -6 153 4 205 24 235 89
11 24 20 51 20 60 0 9 24 33 54 53 151 100 294 254 446 480 33 50 64 95 70
102 5 7 10 15 10 18 0 3 11 23 24 44 23 36 106 199 154 301 58 125 151 412
176 540 2 14 11 57 20 95 8 39 18 108 23 155 15 152 8 575 -11 725 -7 53 -19
132 -23 150 -2 11 -6 36 -8 55 -3 19 -7 46 -10 60 -3 14 -8 40 -11 59 -3 19
-12 64 -20 100 -8 36 -17 77 -20 91 -3 14 -7 33 -10 42 -3 10 -8 30 -10 45 -3
16 -12 51 -20 79 -8 28 -16 60 -18 70 -8 40 -19 79 -25 89 -3 6 -7 18 -8 29
-6 34 -187 566 -193 566 -3 0 -15 -8 -26 -18z"/>
<path d="M21678 11343 c-6 -16 -12 -32 -13 -38 0 -5 -6 -23 -13 -38 -7 -16
-12 -30 -12 -32 0 -2 -5 -16 -12 -32 -6 -15 -12 -32 -14 -38 -1 -5 -29 -91
-62 -190 -33 -99 -76 -247 -96 -330 -21 -82 -40 -157 -43 -165 -3 -8 -7 -19
-7 -25 -1 -5 -5 -30 -10 -55 -8 -42 -11 -57 -21 -105 -12 -55 -16 -73 -22
-110 -3 -22 -6 -46 -6 -52 0 -7 -3 -13 -6 -13 -3 0 -7 -12 -7 -27 -2 -31 -12
-121 -19 -168 -26 -175 -27 -671 -1 -800 2 -11 7 -40 12 -65 4 -25 8 -47 9
-50 1 -3 5 -23 9 -45 4 -22 17 -71 28 -109 11 -38 21 -76 23 -85 2 -9 20 -63
40 -121 20 -58 41 -121 48 -140 6 -19 14 -37 17 -40 6 -5 34 -69 35 -80 2 -10
86 -175 97 -187 6 -7 7 -13 2 -13 -5 0 -4 -4 2 -8 5 -4 18 -24 27 -44 10 -20
22 -40 28 -44 6 -3 14 -16 19 -29 18 -47 170 -261 228 -321 6 -7 12 -15 12
-17 0 -20 237 -236 296 -269 19 -11 33 -30 41 -56 30 -106 68 -124 263 -128
112 -2 200 8 335 40 51 12 229 68 265 83 8 3 17 7 20 8 3 1 22 9 44 18 21 9
42 17 45 17 4 0 25 9 47 19 21 10 68 33 104 50 76 36 184 96 222 122 14 11 29
19 32 19 7 0 119 70 126 79 3 4 31 24 62 45 32 21 65 46 75 55 10 9 43 36 73
61 132 107 340 316 340 340 0 5 3 10 8 12 34 15 300 417 341 516 7 17 17 32
22 32 5 0 9 4 9 9 0 4 33 78 73 162 90 188 112 237 122 269 4 14 11 30 15 35
3 6 14 30 23 55 9 25 22 59 28 75 7 17 13 33 14 38 2 4 4 9 5 12 1 3 3 8 5 13
1 4 7 21 14 37 7 17 14 35 15 40 2 11 45 142 53 165 3 8 7 20 9 25 1 6 11 37
22 70 20 61 62 208 67 235 2 8 4 15 5 15 2 0 5 12 16 64 6 31 5 33 -14 26 -12
-3 -32 -8 -44 -11 -130 -24 -647 -177 -773 -229 -16 -6 -57 -22 -90 -35 -33
-13 -76 -30 -95 -39 -19 -8 -40 -15 -45 -17 -58 -11 -573 -273 -583 -296 -2
-5 -8 -8 -13 -8 -13 0 -170 -105 -274 -184 -49 -38 -156 -135 -236 -217 l-146
-148 -2 42 c-1 23 -4 65 -6 92 -3 28 -6 57 -6 65 -1 13 -5 43 -24 175 -10 69
-43 200 -72 287 -15 46 -28 90 -29 98 -2 8 -7 23 -12 35 -5 11 -18 40 -28 65
-51 129 -166 369 -223 465 -20 33 -36 62 -36 65 0 3 -8 16 -16 30 -9 14 -49
77 -88 140 -79 126 -172 263 -200 296 -10 12 -20 26 -22 31 -4 10 -13 22 -102
137 -58 75 -87 112 -107 136 -8 10 -28 35 -45 56 -16 21 -41 50 -55 66 -14 15
-46 52 -70 82 -25 30 -48 55 -53 56 -4 0 -13 -12 -19 -27z"/>
<path d="M20700 8083 c-14 -19 -37 -49 -52 -66 -16 -17 -28 -37 -28 -43 0 -7
-4 -14 -8 -16 -20 -8 -187 -259 -310 -468 -68 -115 -222 -417 -222 -435 0 -3
-9 -25 -21 -49 -11 -25 -22 -51 -23 -58 -2 -7 -8 -25 -14 -40 -6 -14 -23 -66
-37 -115 -14 -48 -29 -95 -32 -103 -3 -8 -8 -24 -10 -35 -2 -11 -10 -54 -19
-95 -8 -41 -18 -104 -22 -140 -13 -124 -5 -421 13 -510 3 -14 10 -50 16 -80 9
-50 15 -79 24 -120 2 -8 4 -15 5 -15 1 0 4 -11 6 -25 3 -13 18 -63 35 -110 16
-47 31 -92 33 -100 5 -19 98 -223 106 -230 3 -3 14 -21 24 -40 46 -84 114
-177 175 -238 57 -58 67 -73 69 -107 5 -85 68 -125 249 -159 95 -19 314 -24
468 -12 73 6 358 50 397 62 9 3 26 7 38 9 12 2 30 7 40 10 10 3 27 8 37 10 98
21 343 107 468 165 39 17 86 39 105 48 19 9 63 33 98 54 34 21 64 38 67 38 5
0 76 46 94 62 8 6 36 27 63 45 27 19 57 40 66 48 101 82 150 123 168 140 104
97 230 225 284 285 36 40 70 78 76 84 8 9 94 115 167 206 7 8 35 47 62 85 27
39 52 72 55 75 3 3 52 75 108 160 56 85 106 160 110 165 4 6 11 18 15 29 7 18
-1 18 -235 12 -134 -3 -267 -8 -296 -11 -29 -2 -87 -7 -130 -10 -200 -15 -304
-27 -437 -51 -44 -8 -96 -16 -115 -18 -19 -3 -57 -9 -85 -15 -27 -6 -62 -13
-77 -16 -58 -11 -82 -16 -88 -20 -4 -2 -22 -7 -41 -10 -45 -8 -47 -8 -169 -46
-58 -18 -107 -34 -110 -34 -53 -14 -67 -19 -75 -25 -5 -4 -28 -13 -50 -20 -72
-23 -269 -123 -381 -192 -73 -46 -67 -49 -51 27 6 26 20 103 24 135 15 101 8
425 -11 506 -2 12 -7 39 -10 60 -4 21 -14 68 -22 104 -9 36 -17 74 -19 84 -3
10 -9 33 -14 50 -5 17 -22 72 -37 121 -32 106 -94 269 -158 415 -49 111 -127
272 -136 280 -3 3 -17 28 -31 55 -47 92 -101 190 -108 195 -3 3 -15 22 -26 43
-11 21 -22 40 -25 42 -3 2 -16 -13 -30 -32z"/>
<path d="M4827 8043 c-20 -38 -53 -95 -72 -128 -38 -65 -225 -438 -225 -449 0
-3 -9 -25 -19 -49 -89 -198 -196 -544 -216 -701 -3 -27 -8 -52 -10 -55 -16
-27 -27 -393 -14 -466 4 -22 10 -60 13 -85 6 -46 11 -74 22 -124 l6 -30 -28
19 c-121 79 -278 159 -434 220 -95 37 -232 84 -270 91 -14 3 -59 14 -100 26
-41 11 -86 22 -100 24 -14 3 -79 16 -145 29 -66 13 -145 26 -175 30 -30 3 -62
8 -70 10 -8 2 -37 6 -65 10 -27 3 -66 8 -85 10 -69 9 -126 14 -220 21 -52 3
-111 8 -130 10 -19 2 -150 6 -290 10 -249 7 -255 6 -239 -12 9 -11 33 -48 54
-84 22 -36 43 -66 47 -68 4 -2 8 -8 8 -13 0 -17 248 -367 295 -415 5 -6 21
-25 35 -43 14 -18 34 -43 45 -56 11 -12 38 -45 60 -71 44 -53 273 -285 345
-349 89 -79 196 -163 280 -218 47 -31 90 -61 97 -67 7 -5 17 -10 22 -10 5 0
16 -6 23 -14 21 -20 248 -128 373 -176 106 -41 275 -96 325 -106 14 -3 39 -9
55 -14 17 -5 55 -14 85 -19 30 -6 66 -14 80 -16 14 -3 45 -8 69 -11 25 -3 47
-7 50 -9 3 -1 44 -6 90 -10 47 -4 94 -9 105 -11 26 -5 332 -5 366 0 14 3 45 7
69 10 23 3 46 8 50 11 4 2 23 7 42 10 52 9 134 52 148 78 6 12 13 39 14 60 2
32 12 49 67 106 75 77 87 92 120 146 13 22 26 42 29 45 35 32 162 311 198 435
8 28 15 55 17 60 2 6 4 12 5 15 0 3 9 37 20 75 10 39 22 90 26 115 4 25 9 56
12 70 27 152 28 447 3 588 -24 128 -70 315 -89 357 -5 11 -19 47 -31 80 -23
66 -112 268 -145 330 -71 133 -110 200 -117 203 -4 2 -8 10 -8 18 0 7 -17 40
-37 71 -21 32 -38 60 -38 63 -1 5 -51 82 -68 105 -4 6 -24 35 -44 65 -20 30
-40 57 -45 58 -4 2 -8 8 -8 13 0 8 -67 107 -80 119 -3 3 -17 21 -30 40 -14 19
-32 44 -42 54 -10 11 -18 23 -18 28 0 4 -6 8 -13 8 -7 0 -29 -30 -50 -67z"/>
<path d="M6579 5683 c0 -10 -2 -27 -5 -38 -19 -97 -37 -376 -38 -575 0 -155
15 -421 27 -495 3 -16 8 -50 11 -75 7 -50 9 -62 26 -135 6 -27 14 -59 16 -70
2 -11 6 -29 9 -40 5 -23 47 -152 69 -211 25 -68 102 -221 140 -277 10 -15 17
-29 15 -31 -2 -2 -49 7 -103 20 -118 27 -147 31 -274 40 -190 14 -417 -1 -627
-40 -11 -2 -36 -6 -55 -10 -63 -11 -81 -15 -174 -37 -89 -20 -120 -29 -238
-64 -32 -9 -63 -18 -70 -19 -7 -2 -20 -6 -28 -9 -31 -11 -227 -80 -272 -95
-27 -9 -48 -19 -48 -23 0 -3 21 -24 46 -45 25 -22 53 -46 62 -55 10 -8 35 -29
57 -45 22 -16 45 -34 50 -40 10 -10 145 -113 191 -144 12 -8 61 -42 110 -76
49 -34 104 -70 123 -80 18 -10 41 -24 50 -29 187 -117 421 -224 626 -288 206
-64 513 -88 780 -60 180 18 421 78 541 134 22 10 43 19 47 19 18 0 138 79 174
116 49 48 61 84 44 130 -11 32 -6 84 8 84 4 0 8 6 8 13 1 6 11 48 22 91 12 44
24 105 27 135 4 31 8 70 10 86 9 82 2 340 -12 415 -3 14 -9 52 -15 85 -13 75
-54 239 -81 325 -27 82 -102 249 -146 325 -63 108 -78 131 -89 143 -7 7 -20
26 -30 42 -9 17 -21 30 -25 30 -4 0 -8 5 -8 11 0 6 -6 16 -12 23 -7 7 -24 28
-38 46 -14 19 -34 44 -45 56 -11 12 -51 57 -90 100 -101 112 -326 325 -423
399 -7 6 -21 17 -30 26 -19 17 -279 211 -299 223 -8 5 -13 1 -14 -11z"/>
<path d="M18994 5682 c-12 -9 -32 -24 -44 -32 -20 -13 -117 -85 -145 -107 -60
-48 -112 -90 -121 -98 -6 -5 -33 -28 -60 -50 -26 -22 -66 -56 -89 -75 -46 -39
-277 -271 -315 -316 -14 -16 -47 -56 -75 -89 -27 -33 -54 -65 -60 -71 -5 -7
-28 -38 -50 -70 -22 -31 -47 -65 -55 -74 -8 -9 -16 -23 -18 -30 -2 -8 -11 -25
-21 -39 -40 -57 -105 -197 -166 -361 -16 -44 -71 -261 -80 -318 -22 -139 -29
-224 -29 -357 0 -127 6 -229 18 -290 4 -16 9 -43 12 -60 8 -39 32 -114 46
-142 6 -12 8 -32 5 -45 -3 -13 -8 -33 -11 -46 -8 -34 18 -83 60 -117 21 -16
42 -35 48 -41 10 -9 28 -20 106 -59 76 -39 168 -72 300 -109 48 -13 139 -30
275 -51 111 -17 455 -12 570 9 17 3 46 8 65 11 203 35 491 148 730 289 47 27
86 48 88 45 2 -2 8 4 13 14 6 9 14 17 19 17 10 0 120 70 177 112 17 13 41 30
53 38 20 13 65 48 110 83 9 7 45 34 80 62 36 27 67 52 70 55 3 3 25 21 50 41
25 20 57 48 73 63 l28 26 -35 14 c-52 22 -331 115 -360 120 -14 3 -29 7 -34 9
-10 7 -197 57 -236 64 -16 2 -40 9 -54 14 -14 5 -27 7 -29 5 -3 -3 -15 -1 -28
4 -13 5 -43 11 -66 15 -24 3 -52 8 -61 11 -35 10 -146 24 -307 39 -179 17
-405 3 -561 -35 -41 -10 -88 -21 -104 -24 l-28 -7 23 38 c12 21 28 47 33 58 6
11 18 28 26 39 8 10 15 21 14 25 -1 3 12 35 28 71 55 121 81 189 84 215 0 6 7
30 14 55 8 25 14 47 15 50 10 40 16 71 19 97 3 18 7 36 10 41 5 8 13 65 21
147 2 22 7 51 10 65 29 140 23 716 -10 975 -5 33 -8 68 -9 78 0 21 -5 21 -32
-1z"/>
<path d="M8474 4327 c4 -19 16 -80 20 -107 3 -14 10 -47 16 -75 5 -27 13 -61
15 -75 3 -14 13 -50 21 -80 9 -30 17 -59 19 -65 8 -38 17 -72 22 -85 3 -8 7
-22 9 -30 5 -25 60 -189 87 -260 48 -126 157 -351 200 -416 15 -21 27 -44 27
-50 0 -7 4 -14 8 -16 5 -1 23 -25 42 -53 61 -91 111 -149 224 -257 l111 -108
-75 -1 c-147 -2 -307 -28 -460 -75 -47 -14 -89 -27 -95 -28 -5 -2 -19 -6 -30
-10 -11 -5 -33 -12 -50 -18 -16 -6 -49 -19 -72 -29 -24 -11 -45 -19 -48 -19
-4 0 -58 -25 -121 -55 -64 -30 -118 -55 -120 -55 -2 0 -22 -11 -44 -25 -22
-14 -40 -23 -40 -20 0 3 -17 -6 -37 -20 -21 -14 -41 -25 -45 -25 -4 0 -50 -27
-103 -60 -53 -33 -99 -60 -101 -60 -3 0 -34 -20 -68 -45 -35 -25 -67 -45 -70
-45 -4 0 -13 -6 -20 -13 -8 -6 -24 -19 -36 -27 -12 -8 -28 -21 -36 -27 -7 -7
-15 -13 -19 -13 -3 0 -15 -9 -26 -19 -21 -19 -21 -19 28 -41 107 -49 490 -185
543 -193 8 -1 20 -6 26 -9 23 -15 399 -96 514 -112 113 -15 206 -21 340 -21
202 1 325 16 505 65 22 6 49 13 59 15 29 7 89 25 111 35 11 4 49 19 85 33 36
14 82 33 102 41 21 9 39 15 40 14 2 -1 21 10 43 23 22 14 56 33 75 43 69 34
148 86 224 145 163 127 232 244 179 304 -15 15 -18 40 -19 126 -1 58 -5 124
-8 146 -4 22 -9 58 -12 79 -3 22 -10 48 -15 58 -5 10 -8 18 -5 18 3 0 -8 37
-23 83 -82 239 -180 421 -329 612 -66 85 -283 301 -312 310 -11 3 -20 11 -20
16 0 5 -10 14 -22 19 -13 6 -43 26 -68 44 -25 19 -50 35 -56 35 -6 1 -17 8
-24 16 -7 8 -24 21 -39 28 -35 18 -75 41 -81 47 -10 10 -215 114 -314 159
-128 59 -332 140 -456 181 -176 59 -178 60 -176 47z"/>
<path d="M17052 4315 c-34 -13 -64 -23 -65 -22 -5 2 -258 -92 -332 -123 -94
-41 -133 -58 -220 -98 -166 -77 -454 -245 -507 -295 -7 -7 -26 -21 -43 -31
-41 -26 -45 -29 -168 -147 -59 -57 -121 -123 -137 -146 -17 -23 -36 -48 -43
-55 -42 -43 -227 -351 -232 -388 -1 -3 -9 -23 -19 -45 -17 -40 -64 -167 -71
-195 -31 -116 -47 -230 -48 -332 0 -101 -3 -120 -19 -134 -41 -38 -7 -139 76
-218 75 -72 242 -196 265 -196 5 0 11 -3 13 -7 5 -11 140 -82 223 -118 62 -26
111 -46 128 -50 4 -2 9 -4 12 -5 3 -1 8 -3 13 -5 4 -1 14 -4 22 -8 82 -31 250
-74 370 -92 19 -3 60 -9 90 -14 55 -9 417 -7 455 2 11 2 51 8 90 12 38 4 72 8
75 10 3 2 23 6 45 9 74 11 149 28 265 58 63 17 122 32 130 33 8 2 47 14 85 26
39 13 72 23 75 24 10 2 116 37 135 44 11 5 87 34 168 66 81 32 150 62 152 66
5 8 -159 129 -175 129 -6 0 -10 5 -10 10 0 6 -6 10 -14 10 -8 0 -16 4 -18 8
-6 16 -256 161 -428 250 -317 163 -578 252 -840 287 -25 3 -54 8 -65 10 -11 2
-55 4 -99 4 l-78 1 114 113 c117 115 150 152 197 222 14 22 33 48 42 58 9 9
22 30 30 45 8 15 16 29 19 32 15 15 135 253 132 263 -1 4 3 7 8 7 5 0 9 3 8 8
-1 7 4 21 32 87 20 46 77 201 91 248 11 34 47 161 53 187 3 8 13 49 25 90 17
64 32 135 55 260 3 14 7 35 10 48 6 26 8 26 -72 -3z"/>
</g>
</svg>
