<svg id="svg" version="1.1" xmlns="http://www.w3.org/2000/svg" xmlns:xlink="http://www.w3.org/1999/xlink" width="400" height="400" viewBox="0, 0, 400,400"><g id="svgg"><path id="path0" d="M146.630 24.757 C 146.604 24.782,146.283 24.823,145.917 24.848 C 145.550 24.874,145.189 24.926,145.114 24.964 C 145.038 25.002,144.476 25.062,143.864 25.095 C 141.860 25.206,140.901 25.322,139.000 25.685 C 138.496 25.781,137.821 25.895,137.500 25.939 C 137.179 25.983,136.804 26.062,136.667 26.115 C 136.529 26.168,136.267 26.232,136.083 26.258 C 135.686 26.315,133.259 26.950,132.667 27.152 C 132.438 27.231,131.912 27.387,131.500 27.500 C 130.814 27.688,130.456 27.795,129.623 28.063 C 129.462 28.115,129.274 28.167,129.207 28.179 C 129.139 28.190,128.933 28.283,128.750 28.386 C 128.567 28.488,128.360 28.584,128.292 28.598 C 128.223 28.613,128.129 28.644,128.083 28.667 C 128.037 28.690,127.944 28.724,127.875 28.744 C 127.035 28.980,125.521 29.733,125.607 29.871 C 125.653 29.947,125.630 29.998,125.554 29.984 C 125.192 29.921,124.834 30.023,124.601 30.256 C 124.460 30.397,124.286 30.510,124.214 30.508 C 123.923 30.499,123.500 30.699,123.500 30.845 C 123.500 30.930,123.388 31.000,123.250 31.000 C 123.112 31.000,122.850 31.150,122.667 31.333 C 122.483 31.517,122.296 31.667,122.250 31.667 C 122.204 31.667,122.110 31.667,122.040 31.667 C 121.970 31.667,121.691 31.873,121.419 32.125 C 121.147 32.377,120.864 32.583,120.790 32.583 C 120.715 32.583,120.583 32.696,120.496 32.833 C 120.410 32.971,120.336 33.008,120.333 32.917 C 120.331 32.825,120.257 32.862,120.170 33.000 C 120.083 33.137,119.948 33.250,119.871 33.250 C 119.367 33.250,113.432 38.956,113.066 39.792 C 112.936 40.090,112.788 40.333,112.738 40.333 C 112.688 40.333,112.701 40.247,112.766 40.141 C 112.840 40.022,112.812 39.994,112.692 40.067 C 112.587 40.133,112.500 40.294,112.500 40.427 C 112.500 40.559,112.432 40.667,112.348 40.667 C 111.900 40.667,108.030 46.986,108.466 47.005 C 108.531 47.008,108.465 47.079,108.321 47.164 C 108.063 47.315,107.996 47.488,107.347 49.694 C 106.927 51.120,106.723 52.833,106.973 52.833 C 107.074 52.833,107.113 52.946,107.060 53.083 C 107.008 53.221,107.052 53.333,107.159 53.333 C 107.266 53.333,107.314 53.397,107.266 53.474 C 107.089 53.760,108.111 54.515,109.000 54.756 C 109.046 54.769,109.196 54.826,109.333 54.883 C 110.494 55.368,118.820 55.297,119.451 54.797 C 119.562 54.710,119.719 54.679,119.800 54.729 C 119.970 54.834,123.135 54.029,124.500 53.534 C 125.004 53.351,126.078 52.961,126.887 52.668 C 128.375 52.130,131.672 50.497,132.208 50.034 C 132.369 49.895,132.500 49.837,132.500 49.904 C 132.500 50.099,133.643 49.357,134.968 48.303 C 135.638 47.770,136.246 47.333,136.319 47.333 C 136.520 47.333,142.500 41.307,142.500 41.105 C 142.500 41.008,142.794 40.626,143.154 40.256 C 143.514 39.886,144.096 39.164,144.446 38.652 C 144.797 38.139,145.627 36.963,146.292 36.037 C 146.956 35.112,147.500 34.309,147.500 34.253 C 147.500 34.197,147.774 33.723,148.108 33.200 C 148.442 32.678,148.719 32.212,148.724 32.167 C 148.728 32.121,148.858 31.948,149.012 31.782 C 149.166 31.617,149.573 30.942,149.917 30.282 C 150.260 29.623,150.823 28.596,151.166 28.000 C 152.018 26.524,152.432 25.671,152.565 25.116 L 152.678 24.648 149.677 24.680 C 148.027 24.698,146.655 24.733,146.630 24.757 M247.292 24.847 C 247.406 24.968,247.500 25.194,247.500 25.350 C 247.500 25.505,247.714 26.034,247.976 26.525 C 248.980 28.407,249.554 29.426,249.745 29.667 C 249.855 29.804,250.073 30.198,250.230 30.542 C 250.387 30.885,250.592 31.167,250.684 31.167 C 250.777 31.167,250.813 31.232,250.764 31.311 C 250.682 31.444,250.901 31.826,252.197 33.800 C 252.455 34.194,252.667 34.592,252.667 34.685 C 252.667 34.777,252.742 34.807,252.833 34.750 C 252.925 34.693,253.000 34.756,253.000 34.888 C 253.000 35.153,254.003 36.672,254.613 37.330 C 254.826 37.559,255.112 37.983,255.249 38.272 C 255.386 38.561,255.616 38.842,255.760 38.897 C 255.904 38.953,255.984 39.058,255.939 39.131 C 255.894 39.204,256.301 39.745,256.845 40.332 C 257.389 40.919,257.833 41.452,257.833 41.515 C 257.833 41.579,258.190 41.997,258.625 42.445 C 259.060 42.893,259.687 43.558,260.017 43.922 C 261.197 45.222,263.163 47.000,263.423 47.000 C 263.568 47.000,263.643 47.070,263.591 47.155 C 263.538 47.240,263.646 47.357,263.831 47.416 C 264.016 47.475,264.167 47.592,264.167 47.678 C 264.167 47.763,264.244 47.833,264.338 47.833 C 264.432 47.833,264.777 48.077,265.104 48.375 C 265.432 48.673,265.754 48.917,265.820 48.917 C 265.886 48.917,266.072 49.048,266.233 49.209 C 266.607 49.583,267.170 49.886,267.282 49.774 C 267.330 49.726,267.516 49.823,267.695 49.991 C 268.121 50.388,271.333 52.057,271.336 51.884 C 271.337 51.810,271.394 51.832,271.461 51.932 C 271.581 52.110,271.954 52.260,274.500 53.156 C 275.188 53.398,275.830 53.645,275.927 53.705 C 278.045 55.014,288.205 55.691,291.220 54.723 C 292.883 54.190,293.446 52.404,292.681 50.085 C 292.506 49.554,292.396 49.031,292.437 48.923 C 292.479 48.816,292.014 47.758,291.405 46.572 C 289.831 43.509,289.826 43.500,289.645 43.500 C 289.554 43.500,289.520 43.436,289.568 43.359 C 289.616 43.281,289.508 43.059,289.328 42.866 C 289.147 42.672,289.000 42.470,289.000 42.416 C 289.000 42.240,287.630 40.500,287.491 40.500 C 287.417 40.500,287.306 40.343,287.245 40.150 C 287.184 39.958,286.646 39.302,286.049 38.692 C 285.453 38.082,284.852 37.415,284.713 37.208 C 284.575 37.002,284.370 36.833,284.258 36.833 C 284.145 36.833,283.967 36.644,283.862 36.412 C 283.756 36.180,283.544 35.942,283.390 35.883 C 283.237 35.825,282.842 35.506,282.514 35.176 C 281.405 34.061,278.948 32.209,277.358 31.290 C 276.133 30.582,274.241 29.634,273.929 29.572 C 273.752 29.537,273.556 29.425,273.494 29.323 C 273.431 29.221,273.313 29.134,273.231 29.130 C 273.150 29.125,272.858 29.025,272.583 28.908 C 270.383 27.968,269.011 27.533,268.599 27.644 C 268.515 27.666,268.402 27.611,268.347 27.521 C 268.291 27.432,268.022 27.334,267.748 27.304 C 267.474 27.274,267.212 27.207,267.167 27.155 C 267.040 27.011,264.812 26.451,264.292 26.433 C 264.040 26.424,263.833 26.356,263.833 26.282 C 263.833 26.208,263.750 26.199,263.648 26.262 C 263.546 26.325,263.411 26.292,263.348 26.190 C 263.285 26.088,262.843 25.985,262.367 25.961 C 261.891 25.936,261.501 25.861,261.501 25.794 C 261.500 25.726,261.331 25.669,261.125 25.668 C 260.731 25.665,259.750 25.546,259.750 25.501 C 259.750 25.383,257.295 25.132,255.833 25.100 C 255.421 25.091,255.036 25.019,254.979 24.940 C 254.921 24.861,253.121 24.759,250.979 24.712 C 247.762 24.643,247.120 24.666,247.292 24.847 M91.124 35.520 C 90.872 35.708,90.714 35.942,90.775 36.040 C 90.835 36.138,90.809 36.171,90.715 36.113 C 90.622 36.056,90.309 36.269,90.019 36.588 C 89.729 36.906,89.437 37.167,89.371 37.167 C 89.255 37.167,87.963 38.373,87.561 38.857 C 87.457 38.981,86.951 39.487,86.436 39.980 C 85.921 40.473,85.500 40.946,85.500 41.031 C 85.500 41.117,85.444 41.162,85.375 41.132 C 85.306 41.103,84.830 41.511,84.316 42.039 C 83.803 42.568,83.405 43.000,83.434 43.000 C 83.462 43.000,83.320 43.172,83.117 43.383 C 82.362 44.171,81.833 44.836,81.833 44.999 C 81.833 45.091,81.735 45.167,81.615 45.167 C 81.495 45.167,81.177 45.472,80.907 45.846 C 80.637 46.220,80.248 46.737,80.042 46.995 C 79.835 47.253,79.667 47.510,79.667 47.565 C 79.667 47.621,79.406 47.942,79.088 48.279 C 78.770 48.616,78.392 49.141,78.247 49.446 C 78.103 49.751,77.914 50.000,77.829 50.000 C 77.743 50.000,77.626 50.188,77.568 50.417 C 77.511 50.646,77.413 50.833,77.351 50.833 C 77.289 50.833,77.106 51.058,76.943 51.333 C 76.781 51.608,76.690 51.833,76.741 51.833 C 76.792 51.833,76.681 51.986,76.494 52.173 C 76.307 52.359,76.199 52.584,76.254 52.673 C 76.308 52.761,76.282 52.833,76.196 52.833 C 76.000 52.833,75.496 53.586,75.417 53.996 C 75.385 54.164,75.239 54.533,75.092 54.817 C 74.945 55.101,74.876 55.333,74.938 55.333 C 75.001 55.333,74.943 55.465,74.811 55.625 C 74.457 56.054,73.981 57.167,74.082 57.331 C 74.130 57.408,74.089 57.498,73.992 57.530 C 73.895 57.563,73.793 57.701,73.767 57.836 C 73.740 57.972,73.624 58.308,73.509 58.583 C 73.394 58.858,73.298 59.252,73.296 59.458 C 73.294 59.665,73.217 59.833,73.126 59.833 C 73.035 59.833,72.999 59.980,73.046 60.159 C 73.093 60.338,73.072 60.506,73.000 60.534 C 72.880 60.579,72.813 60.877,72.575 62.417 C 72.533 62.692,72.430 63.329,72.347 63.833 C 72.263 64.337,72.188 64.862,72.180 65.000 C 72.172 65.137,72.087 65.887,71.991 66.667 C 71.696 69.062,71.976 74.547,72.458 75.833 C 72.542 76.055,72.615 76.653,72.669 77.545 C 72.679 77.708,72.756 77.798,72.842 77.745 C 72.927 77.692,72.951 77.767,72.896 77.910 C 72.841 78.054,72.879 78.271,72.980 78.392 C 73.081 78.514,73.120 78.658,73.066 78.712 C 73.012 78.766,73.078 79.022,73.213 79.280 C 73.347 79.539,73.578 80.031,73.726 80.375 C 73.874 80.719,74.075 81.000,74.174 81.000 C 74.272 81.000,74.311 81.067,74.260 81.150 C 74.210 81.232,74.395 81.542,74.672 81.839 C 74.950 82.136,75.329 82.593,75.516 82.855 C 76.198 83.813,82.012 86.377,82.468 85.921 C 82.515 85.874,82.636 85.905,82.738 85.990 C 83.725 86.809,92.455 86.997,96.167 86.280 C 100.459 85.450,102.440 84.806,105.167 83.354 C 106.129 82.842,106.954 82.419,107.000 82.416 C 107.260 82.395,108.833 81.420,108.833 81.279 C 108.833 81.187,108.882 81.160,108.941 81.219 C 109.000 81.278,109.394 81.075,109.816 80.768 C 110.238 80.461,110.820 80.089,111.109 79.942 C 111.398 79.795,111.736 79.575,111.859 79.454 C 111.982 79.333,112.608 78.845,113.250 78.369 C 115.859 76.434,118.806 73.878,121.541 71.180 C 123.614 69.133,123.957 68.667,123.387 68.667 C 123.233 68.667,122.877 68.592,122.595 68.501 C 120.987 67.981,120.557 67.875,120.214 67.912 C 120.005 67.935,119.833 67.901,119.833 67.836 C 119.833 67.771,119.627 67.706,119.375 67.693 C 118.631 67.652,118.255 67.589,118.167 67.490 C 118.121 67.439,117.446 67.263,116.667 67.099 C 115.888 66.934,114.800 66.701,114.250 66.579 C 113.700 66.458,112.837 66.314,112.333 66.259 C 111.829 66.204,111.079 66.105,110.667 66.039 C 110.254 65.972,109.523 65.917,109.042 65.917 C 108.560 65.917,108.167 65.873,108.167 65.819 C 108.167 65.684,106.536 65.608,103.583 65.605 C 99.949 65.601,98.833 65.650,98.833 65.811 C 98.833 65.889,98.645 65.918,98.416 65.874 C 98.186 65.830,97.900 65.876,97.780 65.975 C 97.660 66.074,97.365 66.120,97.125 66.077 C 96.885 66.033,96.641 66.074,96.582 66.168 C 96.524 66.262,96.416 66.301,96.342 66.256 C 96.220 66.180,95.675 66.308,93.750 66.866 C 93.383 66.972,92.952 67.170,92.792 67.305 C 92.631 67.441,92.500 67.508,92.500 67.454 C 92.500 67.400,92.256 67.430,91.958 67.521 C 90.975 67.819,90.790 67.837,90.962 67.618 C 91.200 67.315,92.435 64.034,92.668 63.083 C 94.364 56.186,94.442 48.282,92.897 39.917 C 92.660 38.633,92.475 37.382,92.485 37.136 C 92.495 36.890,92.431 36.644,92.342 36.589 C 92.254 36.534,92.219 36.392,92.264 36.273 C 92.572 35.471,91.839 34.986,91.124 35.520 M307.979 35.278 C 307.968 35.308,307.940 35.408,307.917 35.500 C 307.894 35.592,307.860 35.685,307.841 35.708 C 307.750 35.822,307.017 39.554,307.013 39.929 C 307.007 40.368,306.903 41.032,306.791 41.333 C 306.574 41.918,306.121 46.051,306.103 47.607 C 306.092 48.537,306.031 49.266,305.968 49.228 C 305.745 49.094,305.967 56.388,306.242 58.250 C 306.554 60.356,307.643 64.691,307.906 64.872 C 308.004 64.940,308.018 64.996,307.938 64.997 C 307.858 64.999,307.876 65.101,307.978 65.224 C 308.080 65.347,308.114 65.497,308.054 65.557 C 307.994 65.617,308.036 65.667,308.149 65.667 C 308.261 65.667,308.315 65.728,308.269 65.803 C 308.222 65.878,308.369 66.337,308.594 66.823 L 309.003 67.706 308.543 67.600 C 307.837 67.437,307.762 67.415,307.583 67.309 C 307.369 67.183,305.820 66.677,305.402 66.597 C 305.226 66.563,304.745 66.444,304.333 66.332 C 303.921 66.220,303.283 66.094,302.917 66.051 C 301.360 65.868,301.026 65.827,299.917 65.682 C 298.764 65.532,292.807 65.582,292.000 65.750 C 291.771 65.797,291.133 65.871,290.583 65.915 C 290.033 65.958,289.433 66.026,289.250 66.067 C 289.067 66.108,288.631 66.147,288.282 66.154 C 287.933 66.161,287.687 66.231,287.735 66.309 C 287.784 66.388,287.641 66.417,287.418 66.374 C 287.195 66.332,286.429 66.431,285.715 66.595 C 285.001 66.758,284.309 66.912,284.176 66.936 C 284.044 66.960,283.744 67.034,283.510 67.100 C 283.275 67.166,283.008 67.230,282.917 67.243 C 282.457 67.308,281.387 67.537,281.167 67.617 C 281.029 67.668,280.679 67.729,280.388 67.753 C 280.097 67.778,279.777 67.848,279.677 67.910 C 279.577 67.972,279.289 68.058,279.039 68.101 C 276.423 68.548,276.083 68.810,276.954 69.708 C 277.332 70.098,277.858 70.642,278.124 70.917 C 279.070 71.897,281.919 74.498,282.045 74.496 C 282.115 74.496,282.404 74.758,282.686 75.080 C 282.969 75.402,283.270 75.623,283.354 75.570 C 283.439 75.518,283.488 75.563,283.462 75.670 C 283.437 75.777,283.563 75.951,283.742 76.057 C 283.921 76.163,284.199 76.400,284.361 76.583 C 284.523 76.767,284.658 76.870,284.661 76.814 C 284.664 76.757,284.935 76.963,285.262 77.272 C 285.589 77.581,285.946 77.833,286.055 77.833 C 286.164 77.833,286.347 77.983,286.461 78.167 C 286.576 78.350,286.740 78.500,286.826 78.500 C 286.912 78.500,287.193 78.695,287.450 78.933 C 287.707 79.171,288.367 79.628,288.917 79.948 C 289.467 80.269,290.069 80.671,290.255 80.843 C 290.627 81.187,291.275 81.558,293.714 82.825 C 294.612 83.290,295.474 83.744,295.631 83.832 C 296.676 84.417,298.341 84.975,301.364 85.751 C 306.813 87.150,313.796 87.103,318.650 85.636 C 319.530 85.369,320.486 85.090,320.774 85.014 C 323.332 84.342,326.051 81.530,326.897 78.680 C 327.036 78.214,327.106 77.833,327.054 77.833 C 327.002 77.833,327.039 77.737,327.137 77.619 C 328.055 76.512,328.225 61.699,327.313 62.263 C 327.250 62.302,327.232 62.202,327.274 62.042 C 327.360 61.713,326.237 57.671,325.992 57.425 C 325.905 57.338,325.833 57.171,325.833 57.054 C 325.833 56.936,325.568 56.274,325.244 55.581 C 324.919 54.888,324.582 54.155,324.494 53.952 C 324.406 53.749,324.262 53.471,324.174 53.333 C 324.086 53.196,323.550 52.296,322.981 51.333 C 321.970 49.620,321.278 48.583,320.926 48.250 C 320.701 48.037,319.802 46.858,319.583 46.490 C 319.343 46.085,317.799 44.342,316.211 42.683 C 315.456 41.895,314.837 41.194,314.836 41.125 C 314.834 41.056,314.716 41.000,314.573 41.000 C 314.431 41.000,314.353 40.936,314.402 40.858 C 314.524 40.659,313.757 39.968,313.586 40.123 C 313.509 40.193,313.493 40.168,313.550 40.068 C 313.675 39.849,312.613 38.776,312.441 38.948 C 312.374 39.014,312.280 38.914,312.230 38.725 C 312.158 38.449,310.843 37.167,310.632 37.167 C 310.602 37.167,310.106 36.729,309.530 36.194 C 308.645 35.373,308.071 35.034,307.979 35.278 M53.167 72.932 C 52.846 73.343,52.377 73.875,52.125 74.117 C 51.873 74.358,51.694 74.583,51.728 74.617 C 51.761 74.650,51.555 74.926,51.269 75.229 C 50.984 75.532,50.563 76.062,50.333 76.406 C 50.104 76.750,49.692 77.261,49.417 77.543 C 49.142 77.825,49.029 77.993,49.167 77.917 C 49.390 77.794,48.867 78.474,48.401 78.912 C 47.966 79.321,47.489 80.180,47.599 80.358 C 47.670 80.474,47.646 80.507,47.538 80.440 C 47.439 80.379,47.309 80.480,47.251 80.664 C 47.192 80.849,47.074 81.000,46.989 81.000 C 46.903 81.000,46.833 81.106,46.833 81.236 C 46.833 81.366,46.777 81.497,46.708 81.528 C 46.546 81.600,45.167 83.651,45.167 83.821 C 45.167 83.892,44.947 84.254,44.678 84.625 C 44.409 84.996,44.234 85.345,44.289 85.400 C 44.344 85.455,44.303 85.500,44.198 85.500 C 43.982 85.500,43.333 86.683,43.333 87.077 C 43.333 87.218,43.270 87.333,43.192 87.333 C 43.062 87.333,42.401 88.626,42.429 88.828 C 42.435 88.877,42.341 89.016,42.219 89.138 C 42.097 89.260,42.040 89.429,42.092 89.513 C 42.144 89.598,42.102 89.667,42.000 89.667 C 41.898 89.667,41.860 89.742,41.917 89.833 C 41.973 89.925,41.952 90.000,41.870 90.000 C 41.709 90.000,40.846 91.669,40.750 92.165 C 40.718 92.331,40.580 92.684,40.443 92.949 C 39.908 93.985,38.518 98.262,38.425 99.161 C 38.401 99.393,38.324 99.716,38.255 99.877 C 38.186 100.039,38.168 100.321,38.216 100.503 C 38.263 100.685,38.242 100.797,38.169 100.752 C 38.096 100.706,38.026 100.950,38.013 101.293 C 37.948 103.050,37.908 103.500,37.815 103.500 C 37.732 103.500,37.741 106.057,37.845 111.711 C 37.851 112.056,37.913 112.304,37.982 112.261 C 38.051 112.219,38.096 112.422,38.082 112.714 C 38.069 113.006,38.125 113.583,38.207 113.997 C 38.290 114.411,38.394 114.975,38.439 115.250 C 38.592 116.178,38.841 116.985,39.007 117.088 C 39.098 117.144,39.130 117.258,39.079 117.341 C 38.993 117.479,39.691 119.745,40.180 120.917 C 40.430 121.515,40.452 121.591,40.479 121.927 C 40.491 122.078,40.580 122.137,40.692 122.067 C 40.800 122.001,40.840 122.021,40.783 122.114 C 40.620 122.377,41.631 124.375,41.857 124.235 C 41.977 124.161,42.007 124.188,41.935 124.303 C 41.546 124.934,44.762 127.798,46.667 128.517 C 48.960 129.383,58.329 130.222,58.335 129.562 C 58.335 129.482,58.808 129.408,59.386 129.398 C 60.598 129.377,63.382 128.835,65.374 128.235 C 66.131 128.006,67.302 127.670,67.977 127.487 C 68.652 127.305,70.191 126.670,71.398 126.078 C 72.604 125.485,73.656 125.000,73.735 125.000 C 73.814 125.000,74.412 124.624,75.064 124.164 C 75.716 123.705,76.888 122.883,77.667 122.337 C 78.447 121.792,79.409 121.043,79.806 120.673 C 80.203 120.303,80.578 119.999,80.639 119.998 C 80.797 119.995,84.851 115.995,86.300 114.412 C 86.969 113.681,87.813 112.760,88.176 112.364 C 89.088 111.369,91.962 107.661,92.914 106.250 C 93.347 105.608,93.788 105.008,93.894 104.917 C 94.204 104.650,94.667 103.866,94.667 103.608 C 94.667 103.361,93.628 103.145,92.833 103.227 C 92.604 103.250,92.340 103.213,92.245 103.145 C 91.675 102.731,76.494 102.604,76.243 103.011 C 76.205 103.072,75.985 103.086,75.753 103.041 C 75.521 102.997,75.205 103.063,75.050 103.189 C 74.811 103.383,74.790 103.382,74.910 103.183 C 75.015 103.008,74.992 102.986,74.817 103.094 C 74.689 103.174,74.406 103.217,74.190 103.189 C 73.973 103.161,73.837 103.205,73.887 103.286 C 73.938 103.368,73.740 103.413,73.448 103.387 C 73.156 103.361,72.392 103.446,71.750 103.574 C 71.108 103.703,70.283 103.859,69.917 103.919 C 69.550 103.980,69.145 104.117,69.016 104.223 C 68.887 104.330,68.756 104.398,68.724 104.375 C 68.570 104.264,67.825 104.351,67.899 104.472 C 67.947 104.549,67.749 104.611,67.460 104.611 C 67.171 104.611,66.906 104.699,66.870 104.807 C 66.834 104.914,66.743 104.964,66.666 104.917 C 66.590 104.869,66.315 104.919,66.056 105.026 C 65.796 105.133,65.493 105.206,65.383 105.188 C 65.091 105.141,61.660 106.607,60.809 107.142 C 60.410 107.393,59.840 107.698,59.542 107.819 C 59.244 107.941,59.000 108.098,59.000 108.169 C 59.000 108.240,58.894 108.338,58.765 108.388 C 58.572 108.462,58.560 108.382,58.698 107.947 C 60.660 101.776,60.389 93.605,57.917 84.357 C 57.688 83.499,57.500 82.655,57.500 82.482 C 57.500 82.308,57.427 82.167,57.339 82.167 C 57.250 82.167,57.214 82.070,57.260 81.952 C 57.338 81.747,56.230 78.200,55.427 76.083 C 55.218 75.533,54.909 74.652,54.739 74.125 C 54.570 73.598,54.372 73.167,54.299 73.167 C 54.226 73.167,54.182 73.110,54.200 73.042 C 54.438 72.140,53.836 72.076,53.167 72.932 M346.056 72.301 C 345.830 72.442,345.304 73.666,345.467 73.669 C 345.531 73.671,345.502 73.727,345.402 73.794 C 345.238 73.905,344.836 75.117,344.795 75.625 C 344.785 75.740,344.715 75.833,344.639 75.833 C 344.563 75.833,344.500 75.936,344.500 76.062 C 344.500 76.188,344.346 76.639,344.158 77.064 C 343.970 77.489,343.862 77.911,343.918 78.002 C 343.974 78.093,343.949 78.167,343.862 78.167 C 343.716 78.167,343.408 79.255,343.472 79.542 C 343.487 79.610,343.417 79.667,343.316 79.667 C 343.214 79.667,343.174 79.779,343.227 79.917 C 343.280 80.054,343.242 80.167,343.144 80.167 C 343.045 80.167,343.007 80.277,343.058 80.411 C 343.110 80.546,343.074 80.704,342.978 80.763 C 342.883 80.823,342.841 81.013,342.887 81.186 C 342.932 81.359,342.901 81.458,342.818 81.407 C 342.672 81.317,342.629 81.499,342.611 82.292 C 342.606 82.498,342.551 82.667,342.488 82.667 C 342.325 82.667,341.805 84.820,341.922 85.009 C 341.976 85.096,341.951 85.167,341.868 85.167 C 341.785 85.167,341.589 85.748,341.434 86.458 C 341.278 87.169,341.083 88.013,341.001 88.333 C 340.919 88.654,340.801 89.329,340.739 89.833 C 340.583 91.104,340.563 91.211,340.421 91.544 C 340.352 91.706,340.331 92.025,340.375 92.253 C 340.418 92.480,340.400 92.667,340.335 92.667 C 340.270 92.667,340.219 93.064,340.222 93.550 C 340.225 94.036,340.183 94.506,340.129 94.593 C 340.003 94.797,340.015 102.528,340.142 102.749 C 340.194 102.840,340.248 103.215,340.262 103.582 C 340.277 103.950,340.305 104.250,340.324 104.250 C 340.344 104.250,340.385 104.438,340.415 104.667 C 340.445 104.896,340.509 105.233,340.556 105.417 C 340.603 105.600,340.647 105.961,340.654 106.218 C 340.661 106.476,340.723 106.652,340.792 106.609 C 340.860 106.567,340.921 106.693,340.926 106.891 C 340.931 107.088,340.997 107.508,341.071 107.824 C 341.199 108.363,341.190 108.381,340.925 108.116 C 340.770 107.960,340.546 107.833,340.427 107.833 C 340.309 107.833,340.012 107.676,339.768 107.485 C 339.525 107.293,339.222 107.121,339.096 107.102 C 338.970 107.084,338.747 106.969,338.600 106.847 C 338.453 106.725,338.333 106.678,338.333 106.741 C 338.333 106.805,338.221 106.745,338.084 106.607 C 337.831 106.355,335.297 105.304,334.830 105.259 C 334.691 105.245,334.504 105.189,334.414 105.134 C 334.135 104.963,331.167 104.184,331.167 104.282 C 331.167 104.333,331.073 104.297,330.958 104.202 C 330.844 104.107,330.450 103.980,330.083 103.919 C 329.717 103.859,328.892 103.707,328.250 103.582 C 327.608 103.457,326.971 103.349,326.833 103.341 C 325.910 103.292,325.040 103.181,324.790 103.081 C 324.628 103.016,324.272 102.996,323.998 103.036 C 323.724 103.076,323.500 103.062,323.500 103.004 C 323.500 102.778,311.587 102.691,309.917 102.906 C 309.458 102.964,308.837 103.007,308.535 103.000 C 308.233 102.994,307.898 103.043,307.790 103.110 C 307.681 103.177,307.305 103.211,306.954 103.186 C 306.604 103.161,306.211 103.227,306.082 103.334 C 305.953 103.441,305.785 103.490,305.708 103.442 C 305.177 103.114,305.212 103.690,305.776 104.545 C 306.115 105.061,306.442 105.452,306.502 105.415 C 306.562 105.378,306.611 105.444,306.611 105.561 C 306.611 105.835,307.990 107.667,308.197 107.667 C 308.283 107.667,308.307 107.742,308.250 107.833 C 308.193 107.925,308.226 108.000,308.323 108.000 C 308.421 108.000,308.500 108.099,308.500 108.220 C 308.500 108.341,308.912 108.870,309.417 109.394 C 309.921 109.919,310.333 110.449,310.333 110.572 C 310.333 110.695,310.968 111.460,311.743 112.273 C 312.518 113.085,313.156 113.844,313.160 113.958 C 313.164 114.073,313.284 114.167,313.427 114.167 C 313.569 114.167,313.642 114.238,313.588 114.326 C 313.534 114.414,313.698 114.617,313.953 114.779 C 314.208 114.940,314.529 115.222,314.667 115.405 C 314.964 115.800,316.600 117.410,317.304 118.000 C 317.577 118.229,317.772 118.465,317.735 118.524 C 317.699 118.583,318.212 119.065,318.876 119.596 C 319.540 120.128,320.383 120.846,320.750 121.193 C 322.884 123.213,329.890 127.103,332.000 127.439 C 332.321 127.490,332.658 127.588,332.750 127.656 C 332.890 127.761,334.279 128.179,335.302 128.424 C 336.839 128.792,338.539 129.156,339.083 129.234 C 341.680 129.609,342.683 129.666,345.772 129.615 C 348.333 129.574,349.580 129.482,350.500 129.267 C 351.188 129.106,351.928 128.940,352.145 128.897 C 352.967 128.736,354.458 128.030,355.242 127.431 C 356.360 126.578,357.500 125.473,357.500 125.243 C 357.500 125.138,357.634 124.930,357.798 124.782 C 357.962 124.633,358.356 123.965,358.673 123.298 C 358.990 122.630,359.344 121.984,359.458 121.863 C 359.651 121.660,359.687 121.541,359.733 120.958 C 359.742 120.844,359.791 120.712,359.841 120.667 C 359.941 120.575,360.938 117.332,361.070 116.667 C 361.115 116.438,361.264 115.837,361.400 115.333 C 362.253 112.175,362.527 105.143,361.929 101.750 C 361.784 100.925,361.625 99.987,361.576 99.667 C 361.176 97.046,358.154 89.039,357.102 87.810 C 356.956 87.639,356.878 87.500,356.928 87.500 C 356.978 87.500,356.886 87.275,356.723 87.000 C 356.561 86.725,356.365 86.500,356.288 86.500 C 356.210 86.500,356.193 86.425,356.250 86.333 C 356.307 86.242,356.269 86.167,356.167 86.167 C 356.064 86.167,356.020 86.103,356.068 86.025 C 356.116 85.947,356.008 85.726,355.828 85.532 C 355.647 85.339,355.500 85.138,355.500 85.087 C 355.500 85.036,355.297 84.676,355.049 84.288 C 354.802 83.901,354.584 83.495,354.566 83.387 C 354.534 83.195,353.537 81.664,353.337 81.500 C 353.281 81.454,353.014 81.061,352.743 80.625 C 352.472 80.190,352.194 79.834,352.125 79.834 C 352.056 79.833,351.999 79.740,351.997 79.625 C 351.996 79.510,351.471 78.748,350.831 77.932 C 350.190 77.115,349.665 76.403,349.663 76.348 C 349.661 76.294,349.415 75.979,349.116 75.647 C 348.817 75.316,348.350 74.760,348.078 74.412 C 347.806 74.064,347.293 73.435,346.937 73.015 C 346.582 72.594,346.280 72.235,346.266 72.217 C 346.252 72.199,346.157 72.237,346.056 72.301 M379.750 115.550 C 378.680 116.858,378.333 117.334,378.447 117.338 C 378.522 117.341,378.451 117.421,378.288 117.515 C 378.126 117.610,378.036 117.758,378.090 117.844 C 378.143 117.930,378.112 118.000,378.020 118.000 C 377.862 118.000,376.560 119.740,376.463 120.082 C 376.438 120.172,376.173 120.498,375.874 120.805 C 375.576 121.112,375.369 121.423,375.414 121.496 C 375.459 121.569,375.385 121.722,375.248 121.835 C 375.112 121.948,375.000 122.182,375.000 122.354 C 375.000 122.526,374.887 122.667,374.750 122.667 C 374.613 122.667,374.500 122.779,374.500 122.917 C 374.500 123.054,374.441 123.167,374.369 123.167 C 374.194 123.167,373.611 124.165,373.782 124.172 C 373.856 124.175,373.785 124.253,373.625 124.347 C 373.465 124.440,373.333 124.616,373.333 124.738 C 373.333 124.860,373.222 125.052,373.085 125.165 C 372.949 125.278,372.874 125.431,372.920 125.505 C 372.965 125.578,372.938 125.663,372.859 125.694 C 372.641 125.779,371.833 127.127,371.833 127.405 C 371.833 127.540,371.735 127.710,371.614 127.783 C 371.285 127.984,370.255 129.799,369.908 130.788 C 369.741 131.267,369.567 131.623,369.523 131.578 C 369.429 131.484,368.000 134.232,367.916 134.668 C 367.885 134.830,367.787 135.102,367.698 135.273 C 366.563 137.454,364.922 141.724,365.071 142.111 C 365.118 142.233,365.093 142.333,365.016 142.333 C 364.938 142.333,364.818 142.577,364.748 142.875 C 364.677 143.173,364.605 143.454,364.587 143.500 C 364.569 143.546,364.507 143.696,364.449 143.833 C 364.391 143.971,364.299 144.308,364.246 144.583 C 364.100 145.339,364.082 145.403,363.973 145.583 C 363.790 145.886,363.436 147.849,363.425 148.625 C 363.420 148.923,363.361 149.167,363.294 149.167 C 363.226 149.167,363.169 149.335,363.167 149.542 C 363.159 150.240,363.011 152.081,362.935 152.417 C 362.893 152.600,362.853 153.337,362.846 154.056 C 362.832 155.475,362.730 155.562,362.130 154.669 C 361.916 154.350,361.569 154.003,361.359 153.898 C 361.150 153.794,360.965 153.643,360.948 153.563 C 360.918 153.422,359.907 152.525,358.118 151.051 C 357.652 150.667,357.190 150.398,357.093 150.453 C 356.996 150.508,356.971 150.493,357.038 150.419 C 357.184 150.258,354.428 148.399,353.056 147.733 C 352.521 147.474,351.990 147.170,351.875 147.059 C 351.686 146.876,350.974 146.517,348.833 145.527 C 348.421 145.336,347.864 145.142,347.597 145.096 C 347.329 145.050,347.067 144.944,347.014 144.861 C 346.903 144.689,345.078 143.833,344.822 143.833 C 344.729 143.833,344.375 143.691,344.034 143.517 C 343.693 143.344,343.228 143.175,342.999 143.142 C 342.770 143.110,342.540 143.025,342.487 142.954 C 342.434 142.882,342.172 142.807,341.904 142.787 C 341.636 142.767,341.379 142.705,341.333 142.650 C 341.217 142.510,338.176 141.530,337.667 141.468 C 337.438 141.440,337.211 141.365,337.164 141.303 C 337.116 141.240,336.891 141.163,336.664 141.132 C 336.436 141.100,336.151 141.013,336.031 140.937 C 335.910 140.862,335.767 140.844,335.713 140.899 C 335.658 140.953,335.532 140.930,335.432 140.848 C 335.219 140.674,334.196 140.388,333.250 140.239 C 332.883 140.181,331.871 139.957,331.000 139.743 C 328.092 139.025,326.444 138.720,324.875 138.610 C 324.669 138.595,324.500 138.515,324.500 138.431 C 324.500 138.347,324.459 138.319,324.408 138.369 C 324.358 138.420,324.058 138.403,323.742 138.331 C 323.397 138.254,323.167 138.266,323.167 138.361 C 323.167 138.448,323.099 138.478,323.016 138.426 C 322.830 138.311,322.986 139.004,323.211 139.292 C 323.301 139.406,323.318 139.500,323.250 139.500 C 323.182 139.500,323.200 139.594,323.290 139.708 C 323.380 139.823,323.508 140.142,323.573 140.417 C 323.639 140.692,323.791 141.142,323.912 141.417 C 324.264 142.218,325.333 144.954,325.333 145.054 C 325.333 145.104,325.399 145.319,325.480 145.531 C 325.561 145.743,325.635 145.973,325.644 146.043 C 325.654 146.112,325.865 146.562,326.113 147.043 C 326.361 147.523,326.578 147.992,326.596 148.083 C 326.660 148.416,327.573 150.251,327.702 150.306 C 327.774 150.336,327.833 150.506,327.833 150.684 C 327.833 150.861,328.227 151.769,328.708 152.701 C 329.190 153.632,329.885 154.985,330.254 155.707 C 330.624 156.429,330.967 156.977,331.018 156.926 C 331.069 156.875,331.112 156.927,331.113 157.042 C 331.114 157.230,332.104 158.966,332.325 159.167 C 332.375 159.212,332.603 159.606,332.830 160.042 C 333.057 160.477,333.313 160.833,333.399 160.833 C 333.485 160.833,333.508 160.881,333.449 160.940 C 333.330 161.058,333.753 161.708,334.693 162.851 C 335.041 163.274,335.284 163.661,335.234 163.711 C 335.183 163.761,335.490 164.165,335.916 164.609 C 336.341 165.053,336.666 165.430,336.636 165.446 C 336.607 165.462,336.827 165.750,337.125 166.087 C 337.423 166.423,337.667 166.748,337.668 166.808 C 337.668 166.868,338.043 167.278,338.501 167.720 C 338.959 168.162,339.334 168.574,339.335 168.637 C 339.339 168.928,343.749 172.833,344.074 172.833 C 344.117 172.833,344.361 173.026,344.617 173.262 C 345.561 174.129,346.465 174.782,346.839 174.865 C 347.092 174.921,347.176 174.975,347.917 175.550 C 349.567 176.830,355.144 179.532,357.324 180.107 C 357.823 180.238,358.310 180.408,358.407 180.484 C 358.644 180.671,361.933 181.582,363.543 181.908 C 367.214 182.651,372.020 182.572,373.000 181.751 C 373.137 181.636,373.544 181.448,373.903 181.332 C 375.314 180.879,379.071 177.604,379.733 176.250 C 379.867 175.975,380.215 175.487,380.505 175.167 C 381.444 174.129,384.735 168.425,384.880 167.583 C 384.912 167.400,385.094 166.912,385.285 166.500 C 386.194 164.535,387.228 161.672,387.421 160.583 C 387.486 160.217,387.748 159.017,388.004 157.917 C 389.279 152.427,389.315 145.473,388.098 139.667 C 388.050 139.438,387.886 138.575,387.734 137.750 C 387.582 136.925,387.280 135.537,387.064 134.667 C 386.847 133.796,386.632 132.921,386.584 132.722 C 386.537 132.523,386.148 131.285,385.720 129.972 C 385.291 128.658,384.932 127.508,384.922 127.417 C 384.887 127.111,384.477 125.793,384.332 125.520 C 384.130 125.140,382.881 121.978,382.382 120.583 C 382.152 119.942,381.754 119.004,381.496 118.500 C 381.239 117.996,380.793 117.077,380.506 116.458 C 380.218 115.840,379.968 115.336,379.950 115.340 C 379.932 115.343,379.842 115.438,379.750 115.550 M19.833 115.819 C 19.833 115.995,19.768 116.164,19.688 116.194 C 19.429 116.293,18.651 118.006,18.771 118.215 C 18.835 118.326,18.826 118.362,18.751 118.294 C 18.595 118.153,18.359 118.575,17.939 119.750 C 17.775 120.208,17.576 120.733,17.497 120.917 C 16.468 123.304,16.121 124.189,15.603 125.750 C 15.268 126.758,14.914 127.808,14.816 128.083 C 14.477 129.039,14.131 130.252,14.095 130.614 C 14.075 130.814,13.961 131.096,13.842 131.239 C 13.723 131.383,13.682 131.500,13.750 131.500 C 13.818 131.500,13.795 131.596,13.698 131.712 C 13.601 131.829,13.485 132.148,13.441 132.421 C 13.397 132.694,13.345 132.935,13.326 132.958 C 13.307 132.981,13.276 133.056,13.256 133.125 C 13.237 133.194,13.178 133.362,13.125 133.500 C 12.922 134.024,12.635 135.490,12.603 136.167 C 12.592 136.396,12.536 136.621,12.478 136.667 C 12.420 136.712,12.330 137.050,12.279 137.417 C 12.227 137.783,12.062 138.558,11.913 139.138 C 11.763 139.718,11.682 140.299,11.732 140.429 C 11.782 140.560,11.763 140.667,11.690 140.667 C 11.558 140.667,11.200 143.024,11.046 144.917 C 10.863 147.146,10.905 151.669,11.124 153.417 C 11.462 156.116,12.633 161.533,12.947 161.847 C 13.054 161.954,13.104 162.137,13.059 162.254 C 12.980 162.460,13.433 163.748,13.927 164.722 C 14.059 164.981,14.167 165.272,14.167 165.368 C 14.167 165.464,14.400 166.001,14.685 166.563 C 14.971 167.124,15.196 167.602,15.185 167.625 C 15.084 167.852,15.206 168.162,15.359 168.067 C 15.474 167.996,15.506 168.021,15.440 168.129 C 15.289 168.374,15.845 169.512,16.053 169.384 C 16.144 169.328,16.174 169.353,16.121 169.439 C 16.031 169.585,16.395 170.328,17.578 172.417 C 17.838 172.875,18.121 173.296,18.206 173.352 C 18.292 173.408,18.343 173.483,18.319 173.519 C 18.239 173.641,19.153 174.972,19.471 175.194 C 19.645 175.316,19.782 175.454,19.774 175.500 C 19.740 175.701,20.867 177.150,21.607 177.856 C 22.052 178.281,22.642 178.889,22.917 179.207 C 26.145 182.942,32.673 183.436,41.250 180.596 C 42.167 180.293,43.126 179.995,43.381 179.934 C 44.450 179.680,49.882 176.977,51.605 175.841 C 52.306 175.378,52.926 175.000,52.984 175.000 C 53.084 175.000,53.563 174.657,55.847 172.951 C 57.282 171.879,59.027 170.317,60.247 169.011 C 60.799 168.421,61.476 167.709,61.753 167.428 C 62.029 167.147,62.380 166.722,62.532 166.483 C 62.684 166.245,63.227 165.570,63.738 164.984 C 64.249 164.398,64.782 163.678,64.921 163.383 C 65.061 163.089,65.267 162.748,65.379 162.626 C 65.491 162.503,65.679 162.256,65.796 162.076 C 65.913 161.897,66.326 161.264,66.713 160.670 C 67.100 160.076,67.398 159.533,67.375 159.462 C 67.352 159.391,67.408 159.333,67.500 159.333 C 67.592 159.333,67.667 159.256,67.667 159.161 C 67.667 159.067,67.992 158.485,68.391 157.870 C 69.476 156.190,69.842 155.551,69.909 155.218 C 69.942 155.052,70.220 154.498,70.526 153.986 C 71.434 152.470,74.128 146.537,74.772 144.633 C 74.980 144.019,75.298 143.157,75.479 142.717 C 75.992 141.471,77.000 138.676,77.000 138.502 C 77.000 138.415,76.662 138.359,76.250 138.378 C 75.837 138.396,75.500 138.452,75.500 138.503 C 75.500 138.553,75.306 138.586,75.070 138.575 C 74.611 138.555,72.396 138.942,72.170 139.081 C 72.096 139.127,71.784 139.197,71.476 139.238 C 71.169 139.279,70.429 139.435,69.833 139.586 C 69.237 139.736,68.188 139.959,67.500 140.082 C 65.430 140.453,64.507 140.710,64.616 140.886 C 64.674 140.980,64.634 140.999,64.524 140.931 C 64.343 140.820,62.453 141.304,61.500 141.706 C 61.271 141.803,60.897 141.905,60.669 141.934 C 60.441 141.962,60.229 142.064,60.196 142.161 C 60.164 142.257,60.078 142.298,60.004 142.252 C 59.813 142.135,58.457 142.635,58.301 142.880 C 58.209 143.024,58.171 143.028,58.169 142.891 C 58.168 142.780,58.024 142.735,57.833 142.785 C 57.650 142.833,57.500 142.938,57.500 143.019 C 57.500 143.100,57.444 143.158,57.375 143.147 C 57.306 143.136,57.212 143.142,57.167 143.160 C 57.121 143.178,56.971 143.221,56.833 143.256 C 56.158 143.430,54.891 143.905,54.692 144.060 C 54.569 144.156,54.309 144.259,54.116 144.288 C 53.923 144.318,53.715 144.421,53.655 144.518 C 53.595 144.616,53.497 144.684,53.436 144.671 C 53.259 144.633,52.167 145.058,52.167 145.165 C 52.167 145.218,52.016 145.274,51.831 145.288 C 51.503 145.312,49.833 146.113,48.667 146.805 C 48.346 146.995,47.540 147.424,46.875 147.758 C 46.210 148.092,45.699 148.417,45.738 148.481 C 45.778 148.545,45.669 148.608,45.496 148.621 C 45.323 148.634,44.747 148.969,44.216 149.364 C 43.282 150.060,43.131 150.177,42.596 150.625 C 42.459 150.740,42.288 150.834,42.215 150.834 C 42.010 150.835,40.406 152.259,38.688 153.964 C 37.829 154.817,37.102 155.491,37.072 155.461 C 37.042 155.431,37.004 154.621,36.988 153.662 C 36.930 150.198,36.130 145.473,35.164 142.875 C 34.985 142.394,34.867 142.000,34.903 142.000 C 35.012 142.000,34.105 139.302,33.869 138.925 C 33.809 138.829,33.746 138.660,33.729 138.550 C 33.614 137.792,29.598 129.589,28.387 127.638 C 27.856 126.783,27.420 126.044,27.419 125.996 C 27.408 125.582,22.233 118.000,21.962 118.000 C 21.880 118.000,21.860 117.925,21.917 117.833 C 21.973 117.742,21.940 117.667,21.843 117.667 C 21.746 117.667,21.667 117.586,21.667 117.488 C 21.667 117.390,21.573 117.211,21.458 117.090 C 21.344 116.969,21.100 116.662,20.917 116.408 C 20.231 115.455,19.833 115.240,19.833 115.819 M1.559 176.253 C 1.507 176.389,1.508 176.612,1.560 176.750 C 1.613 176.887,1.596 177.000,1.522 177.000 C 1.012 177.000,0.790 193.163,1.250 196.917 C 1.607 199.836,1.866 201.402,2.025 201.604 C 2.106 201.707,2.127 201.909,2.071 202.054 C 2.016 202.199,2.029 202.412,2.100 202.528 C 2.172 202.643,2.257 202.994,2.289 203.306 C 2.321 203.619,2.459 204.335,2.597 204.896 C 2.734 205.457,2.879 206.136,2.919 206.403 C 3.033 207.167,4.007 209.983,4.236 210.213 C 4.350 210.326,4.420 210.494,4.392 210.585 C 4.312 210.837,5.431 213.181,5.566 213.045 C 5.631 212.980,5.630 213.068,5.564 213.241 C 5.481 213.458,5.503 213.518,5.636 213.435 C 5.757 213.361,5.797 213.402,5.742 213.543 C 5.694 213.668,5.845 214.050,6.078 214.392 C 6.310 214.735,6.500 215.075,6.500 215.149 C 6.500 215.223,6.741 215.613,7.035 216.017 C 7.330 216.420,7.583 216.829,7.599 216.926 C 7.635 217.149,9.019 219.297,9.437 219.778 C 10.073 220.510,10.260 220.754,10.313 220.917 C 10.342 221.008,10.440 221.063,10.529 221.038 C 10.618 221.012,10.645 221.067,10.588 221.159 C 10.466 221.356,12.876 224.093,14.274 225.343 C 14.536 225.577,15.022 226.064,15.354 226.426 C 17.387 228.637,21.645 231.666,24.577 232.987 C 26.662 233.927,26.944 234.005,28.636 234.121 L 29.855 234.204 30.625 233.400 C 31.326 232.669,31.531 232.561,32.901 232.206 C 33.729 231.992,35.241 231.408,36.260 230.908 C 37.280 230.409,38.188 230.000,38.279 230.000 C 38.626 230.000,44.000 226.365,44.000 226.130 C 44.000 226.059,44.100 226.000,44.222 226.000 C 44.345 226.000,44.643 225.794,44.885 225.542 C 45.128 225.290,45.557 224.896,45.840 224.667 C 47.203 223.563,52.500 218.102,52.500 217.800 C 52.500 217.729,52.610 217.538,52.744 217.377 C 53.417 216.566,54.765 214.682,55.041 214.167 C 55.492 213.324,55.705 212.972,56.103 212.413 C 56.634 211.667,57.166 210.555,57.048 210.437 C 56.991 210.380,57.024 210.333,57.121 210.333 C 57.218 210.333,57.348 210.127,57.409 209.875 C 57.471 209.623,57.699 209.039,57.916 208.576 C 58.426 207.490,59.468 204.704,59.566 204.167 C 59.608 203.938,59.659 203.713,59.680 203.667 C 59.700 203.621,59.732 203.508,59.750 203.417 C 59.768 203.325,59.824 203.137,59.876 203.000 C 60.381 201.655,61.800 194.926,62.089 192.500 C 62.128 192.179,62.232 191.392,62.320 190.750 C 62.759 187.577,62.987 177.333,62.619 177.333 C 62.475 177.333,62.248 177.442,62.115 177.575 C 61.982 177.709,61.826 177.771,61.769 177.714 C 61.712 177.657,61.466 177.791,61.222 178.013 C 60.979 178.235,60.839 178.314,60.912 178.188 C 60.985 178.063,60.678 178.172,60.231 178.432 C 59.783 178.692,59.392 178.964,59.361 179.037 C 59.330 179.109,59.246 179.132,59.173 179.087 C 59.101 179.043,58.832 179.201,58.575 179.439 C 58.318 179.677,58.028 179.886,57.929 179.903 C 57.831 179.921,57.487 180.078,57.167 180.252 C 56.846 180.427,56.546 180.574,56.500 180.581 C 56.275 180.611,54.833 181.549,54.833 181.664 C 54.833 181.737,54.651 181.843,54.428 181.899 C 54.206 181.955,53.924 182.095,53.803 182.211 C 53.682 182.327,53.223 182.608,52.782 182.836 C 52.341 183.064,51.779 183.454,51.532 183.704 C 51.285 183.953,50.990 184.159,50.875 184.162 C 50.760 184.165,50.667 184.246,50.667 184.343 C 50.667 184.440,50.602 184.480,50.523 184.431 C 50.445 184.382,50.182 184.566,49.939 184.838 C 49.696 185.110,49.386 185.333,49.249 185.333 C 49.112 185.333,49.000 185.408,49.000 185.500 C 49.000 185.592,48.932 185.648,48.850 185.625 C 48.665 185.574,47.000 186.817,47.000 187.007 C 47.000 187.082,46.831 187.197,46.625 187.261 C 46.419 187.326,46.212 187.425,46.167 187.482 C 46.121 187.539,45.633 187.920,45.083 188.329 C 44.533 188.738,43.843 189.300,43.549 189.578 C 43.255 189.856,42.742 190.308,42.409 190.583 C 41.177 191.600,37.833 194.948,37.833 195.165 C 37.833 195.288,37.791 195.346,37.738 195.294 C 37.686 195.242,37.330 195.548,36.947 195.974 C 36.564 196.400,36.167 196.824,36.065 196.916 C 35.859 197.102,34.355 199.173,33.582 200.333 C 33.308 200.746,32.985 201.187,32.865 201.313 C 32.746 201.440,32.685 201.641,32.731 201.761 C 32.777 201.880,32.761 202.002,32.696 202.031 C 32.295 202.208,30.612 205.444,30.780 205.715 C 30.840 205.812,30.802 205.834,30.692 205.766 C 30.575 205.693,30.497 205.764,30.493 205.948 C 30.489 206.165,30.408 206.109,30.208 205.750 C 30.055 205.475,29.949 205.183,29.973 205.102 C 30.037 204.880,28.634 202.000,28.463 202.000 C 28.381 202.000,28.353 201.936,28.402 201.858 C 28.450 201.779,28.275 201.378,28.014 200.965 C 27.752 200.552,27.486 200.053,27.423 199.855 C 27.356 199.642,27.229 199.541,27.113 199.608 C 27.005 199.669,26.970 199.661,27.035 199.589 C 27.191 199.417,26.713 198.500,26.468 198.500 C 26.363 198.500,26.325 198.453,26.382 198.396 C 26.476 198.302,25.887 197.405,25.375 196.863 C 25.260 196.742,25.167 196.587,25.167 196.520 C 25.167 196.452,25.035 196.251,24.875 196.072 C 24.715 195.894,24.262 195.326,23.870 194.810 C 23.477 194.294,22.971 193.733,22.745 193.563 C 22.518 193.393,22.333 193.176,22.333 193.080 C 22.333 192.984,21.921 192.505,21.417 192.015 C 20.912 191.525,20.500 191.059,20.500 190.979 C 20.500 190.899,20.383 190.833,20.240 190.833 C 20.097 190.833,20.019 190.771,20.066 190.695 C 20.113 190.619,19.742 190.153,19.242 189.659 C 18.742 189.165,18.333 188.824,18.333 188.899 C 18.333 188.975,17.932 188.617,17.442 188.102 C 16.951 187.588,16.464 187.167,16.358 187.167 C 16.253 187.167,16.185 187.109,16.208 187.038 C 16.273 186.838,14.898 185.657,14.761 185.795 C 14.694 185.862,14.664 185.838,14.694 185.741 C 14.725 185.645,14.469 185.318,14.125 185.016 C 13.781 184.713,13.500 184.505,13.500 184.553 C 13.500 184.602,13.293 184.441,13.040 184.196 C 12.232 183.414,11.443 182.833,11.190 182.833 C 11.055 182.833,10.994 182.784,11.054 182.723 C 11.115 182.663,10.996 182.495,10.791 182.351 C 10.585 182.207,10.409 182.126,10.399 182.170 C 10.390 182.214,10.177 182.006,9.926 181.708 C 9.675 181.410,9.365 181.167,9.235 181.167 C 9.106 181.167,9.000 181.100,9.000 181.019 C 9.000 180.834,8.165 180.278,7.887 180.278 C 7.774 180.278,7.643 180.178,7.596 180.056 C 7.549 179.933,7.414 179.833,7.295 179.833 C 7.177 179.833,6.985 179.680,6.868 179.494 C 6.751 179.307,6.583 179.199,6.495 179.253 C 6.406 179.308,6.333 179.277,6.333 179.185 C 6.333 178.998,5.013 178.044,4.648 177.966 C 4.521 177.939,4.379 177.867,4.333 177.807 C 4.167 177.589,2.504 176.500,2.337 176.500 C 2.243 176.500,2.167 176.433,2.167 176.351 C 2.167 176.081,1.657 175.998,1.559 176.253 M397.417 176.541 C 397.142 176.741,396.879 176.945,396.833 176.994 C 396.787 177.044,396.538 177.193,396.280 177.326 C 396.021 177.460,395.639 177.740,395.429 177.949 C 395.220 178.159,394.794 178.438,394.483 178.570 C 394.171 178.702,393.795 178.946,393.645 179.113 C 393.496 179.280,392.991 179.642,392.524 179.917 C 392.056 180.192,391.672 180.473,391.670 180.542 C 391.668 180.610,391.579 180.667,391.472 180.667 C 391.365 180.667,391.159 180.779,391.014 180.916 C 390.786 181.132,389.363 182.269,388.144 183.208 C 387.936 183.369,387.701 183.500,387.623 183.500 C 387.544 183.500,387.527 183.575,387.583 183.667 C 387.640 183.758,387.598 183.833,387.491 183.833 C 387.295 183.833,385.778 185.076,384.643 186.167 C 384.309 186.487,383.599 187.125,383.066 187.583 C 381.879 188.603,378.709 191.786,377.771 192.900 C 377.393 193.349,376.838 193.986,376.539 194.316 C 376.240 194.647,375.790 195.217,375.540 195.583 C 375.289 195.950,375.047 196.287,375.000 196.333 C 374.677 196.655,373.664 198.000,373.745 198.000 C 373.801 198.000,373.696 198.161,373.512 198.359 C 373.329 198.556,373.218 198.781,373.266 198.859 C 373.314 198.936,373.284 199.000,373.200 199.000 C 372.954 199.000,371.237 202.055,371.337 202.315 C 371.351 202.350,371.291 202.425,371.204 202.481 C 370.973 202.631,370.438 203.725,370.665 203.584 C 370.789 203.508,370.780 203.590,370.639 203.816 C 370.518 204.009,370.371 204.167,370.312 204.167 C 370.221 204.167,370.070 204.721,369.969 205.424 C 369.911 205.827,369.517 206.011,369.356 205.709 C 369.270 205.548,368.883 204.817,368.496 204.083 C 368.108 203.350,367.613 202.412,367.395 202.000 C 366.957 201.171,366.630 200.627,366.494 200.500 C 366.445 200.454,365.979 199.779,365.459 199.000 C 364.202 197.118,358.912 191.340,358.441 191.335 C 358.362 191.334,358.150 191.145,357.969 190.915 C 357.788 190.685,357.559 190.547,357.461 190.607 C 357.362 190.668,357.328 190.644,357.384 190.552 C 357.495 190.372,356.641 189.667,356.312 189.667 C 356.202 189.667,356.159 189.619,356.217 189.561 C 356.357 189.420,354.207 187.667,353.893 187.667 C 353.758 187.667,353.693 187.592,353.750 187.500 C 353.807 187.408,353.780 187.333,353.692 187.333 C 353.603 187.333,353.129 187.015,352.638 186.625 C 351.453 185.684,350.736 185.185,350.489 185.129 C 350.377 185.104,350.067 184.875,349.800 184.621 C 349.282 184.129,348.145 183.367,347.818 183.294 C 347.710 183.270,347.433 183.081,347.203 182.875 C 346.973 182.669,346.683 182.500,346.559 182.500 C 346.435 182.500,346.333 182.425,346.333 182.333 C 346.333 182.242,346.183 182.167,346.000 182.167 C 345.817 182.167,345.667 182.097,345.667 182.012 C 345.667 181.858,343.812 180.665,342.638 180.064 C 342.301 179.891,341.460 179.426,340.769 179.030 C 340.078 178.634,339.462 178.322,339.400 178.336 C 339.338 178.350,339.241 178.291,339.185 178.205 C 339.054 178.003,337.536 177.333,337.208 177.333 C 336.992 177.333,336.973 177.817,337.061 181.042 C 337.160 184.657,337.194 185.336,337.393 187.750 C 337.446 188.392,337.526 189.404,337.572 190.000 C 337.651 191.021,337.697 191.421,337.896 192.833 C 337.941 193.154,338.025 193.792,338.082 194.250 C 338.139 194.708,338.335 195.796,338.518 196.667 C 338.701 197.537,338.932 198.644,339.032 199.125 C 339.131 199.606,339.282 200.000,339.366 200.000 C 339.451 200.000,339.473 200.076,339.415 200.169 C 339.299 200.357,340.314 204.200,340.515 204.336 C 340.585 204.383,340.636 204.533,340.628 204.669 C 340.594 205.259,340.675 205.514,340.859 205.401 C 340.976 205.329,341.006 205.355,340.937 205.467 C 340.833 205.635,341.833 208.488,342.142 208.906 C 342.214 209.004,342.373 209.400,342.495 209.786 C 342.617 210.175,342.791 210.443,342.884 210.385 C 342.979 210.327,343.000 210.365,342.933 210.473 C 342.769 210.739,344.788 214.319,345.189 214.473 C 345.270 214.503,345.293 214.598,345.240 214.682 C 345.188 214.767,345.263 214.881,345.406 214.936 C 345.549 214.991,345.667 215.108,345.667 215.196 C 345.667 215.385,346.598 216.764,346.990 217.157 C 347.140 217.306,347.588 217.893,347.986 218.461 C 348.384 219.028,348.777 219.451,348.859 219.401 C 348.941 219.350,348.991 219.370,348.970 219.446 C 348.886 219.751,353.331 224.273,354.194 224.760 C 354.346 224.846,354.774 225.198,355.145 225.542 C 355.515 225.885,355.897 226.167,355.993 226.167 C 356.088 226.167,356.167 226.241,356.167 226.331 C 356.167 226.584,360.779 229.560,362.000 230.096 C 362.596 230.357,363.122 230.623,363.168 230.688 C 363.215 230.753,363.665 230.965,364.168 231.158 C 364.672 231.351,365.233 231.575,365.417 231.654 C 366.089 231.947,366.769 232.163,367.564 232.335 C 368.385 232.513,369.107 232.942,369.104 233.250 C 369.098 234.006,371.168 234.361,373.061 233.929 C 374.204 233.668,378.459 231.529,378.639 231.125 C 378.669 231.056,378.771 231.000,378.865 231.000 C 379.009 231.000,380.239 230.122,380.500 229.833 C 380.546 229.782,380.747 229.668,380.946 229.579 C 381.742 229.223,387.492 223.857,387.498 223.465 C 387.499 223.399,387.787 223.062,388.137 222.715 C 388.950 221.909,390.000 220.597,390.000 220.387 C 390.000 220.298,390.188 220.049,390.417 219.833 C 390.646 219.618,390.833 219.349,390.833 219.235 C 390.833 219.121,390.896 219.003,390.973 218.972 C 391.170 218.894,392.318 217.228,392.494 216.765 C 392.575 216.554,392.899 215.977,393.214 215.482 C 394.996 212.692,397.085 207.124,397.521 204.003 C 397.617 203.317,397.725 202.708,397.760 202.650 C 397.856 202.495,398.305 199.632,398.586 197.378 C 399.238 192.167,399.266 184.535,398.655 178.667 C 398.369 175.921,398.339 175.870,397.417 176.541 M60.536 222.474 C 59.713 223.336,59.255 223.915,59.294 224.042 C 59.316 224.110,59.240 224.170,59.125 224.174 C 59.010 224.179,58.692 224.481,58.417 224.846 C 57.765 225.710,56.722 226.981,55.429 228.485 C 55.239 228.706,55.177 228.833,55.292 228.767 C 55.632 228.571,55.537 228.722,54.833 229.500 C 54.467 229.905,54.167 230.321,54.167 230.424 C 54.167 230.527,53.947 230.807,53.679 231.046 C 53.411 231.285,53.070 231.737,52.921 232.051 C 52.772 232.365,52.505 232.777,52.327 232.968 C 51.981 233.340,50.167 236.102,50.167 236.258 C 50.167 236.309,49.880 236.779,49.529 237.301 C 48.617 238.659,47.786 240.166,47.946 240.169 C 48.022 240.171,47.999 240.227,47.897 240.294 C 47.628 240.471,46.829 242.107,46.952 242.230 C 47.009 242.287,46.974 242.333,46.874 242.333 C 46.657 242.333,45.592 244.518,45.132 245.909 C 44.951 246.455,44.665 247.205,44.495 247.576 C 44.049 248.554,42.990 252.016,43.088 252.175 C 43.134 252.249,43.104 252.352,43.022 252.403 C 42.830 252.522,42.673 253.359,42.582 254.752 C 42.543 255.355,42.472 255.910,42.426 255.985 C 42.380 256.059,42.305 256.756,42.260 257.532 C 42.215 258.308,42.130 259.068,42.071 259.221 C 41.947 259.545,41.667 259.596,41.667 259.294 C 41.667 259.181,41.273 258.711,40.792 258.249 C 40.310 257.788,39.721 257.186,39.481 256.913 C 39.041 256.411,37.701 255.167,37.601 255.167 C 37.571 255.167,37.268 254.903,36.927 254.582 C 36.585 254.260,36.237 254.040,36.153 254.092 C 36.069 254.144,35.999 254.088,35.998 253.968 C 35.996 253.777,34.024 252.333,33.765 252.333 C 33.711 252.333,33.234 252.014,32.703 251.623 C 32.173 251.233,31.216 250.651,30.578 250.332 C 29.939 250.012,29.379 249.701,29.333 249.642 C 29.216 249.490,25.500 247.670,25.500 247.765 C 25.500 247.807,25.256 247.712,24.958 247.553 C 24.660 247.395,24.360 247.280,24.292 247.299 C 24.223 247.318,24.167 247.258,24.167 247.167 C 24.167 247.075,24.033 247.000,23.870 247.000 C 23.707 247.000,23.407 246.883,23.203 246.740 C 23.000 246.598,22.766 246.522,22.685 246.572 C 22.604 246.622,22.442 246.548,22.326 246.407 C 22.209 246.267,22.019 246.188,21.904 246.232 C 21.789 246.276,21.659 246.221,21.616 246.109 C 21.573 245.997,20.873 245.692,20.061 245.431 C 19.248 245.170,17.833 244.674,16.917 244.327 C 14.920 243.573,14.162 243.359,13.852 243.465 C 13.711 243.512,13.666 243.469,13.737 243.355 C 13.838 243.192,13.283 243.069,12.792 243.147 C 12.723 243.158,12.667 243.099,12.667 243.017 C 12.667 242.934,12.273 242.792,11.792 242.700 C 11.310 242.609,10.368 242.375,9.698 242.180 C 9.028 241.986,8.409 241.870,8.323 241.923 C 8.237 241.976,8.167 241.957,8.167 241.881 C 8.167 241.729,6.628 241.333,6.037 241.333 C 5.652 241.333,5.540 241.569,5.838 241.753 C 5.932 241.811,5.992 241.947,5.971 242.054 C 5.900 242.425,6.182 243.500,6.351 243.500 C 6.444 243.500,6.473 243.576,6.415 243.669 C 6.309 243.841,7.277 247.132,7.511 247.395 C 7.582 247.475,7.601 247.644,7.552 247.770 C 7.504 247.897,7.529 248.000,7.607 248.000 C 7.686 248.000,7.761 248.188,7.774 248.417 C 7.787 248.647,7.855 248.966,7.924 249.126 C 7.993 249.286,8.078 249.567,8.113 249.750 C 8.148 249.933,8.250 250.108,8.339 250.139 C 8.429 250.170,8.463 250.259,8.414 250.337 C 8.366 250.415,8.485 250.877,8.678 251.364 C 9.815 254.231,10.329 255.608,10.331 255.792 C 10.332 255.906,10.421 256.000,10.528 256.000 C 10.635 256.000,10.674 256.049,10.614 256.108 C 10.499 256.223,11.142 257.506,11.412 257.699 C 11.501 257.763,11.525 257.863,11.467 257.922 C 11.408 257.981,11.708 258.716,12.134 259.556 C 12.561 260.396,12.912 261.121,12.915 261.167 C 12.939 261.524,13.407 262.308,13.545 262.222 C 13.640 262.163,13.671 262.191,13.614 262.283 C 13.557 262.376,13.747 262.818,14.037 263.267 C 14.326 263.716,14.582 264.194,14.606 264.329 C 14.629 264.464,14.752 264.651,14.880 264.745 C 15.007 264.840,15.163 265.123,15.226 265.375 C 15.288 265.627,15.418 265.833,15.513 265.833 C 15.608 265.833,15.646 265.899,15.596 265.980 C 15.546 266.060,15.750 266.454,16.049 266.855 C 16.348 267.255,16.882 268.012,17.236 268.535 C 17.590 269.059,18.019 269.637,18.190 269.820 C 18.360 270.003,18.500 270.199,18.500 270.257 C 18.500 270.407,19.655 271.839,20.201 272.366 C 20.457 272.613,20.667 272.878,20.667 272.955 C 20.667 273.128,22.213 274.667,22.386 274.667 C 22.454 274.667,22.746 274.936,23.035 275.265 C 23.552 275.853,26.024 277.890,27.167 278.670 C 27.488 278.888,27.787 279.117,27.833 279.177 C 27.879 279.237,28.179 279.419,28.500 279.580 C 28.821 279.742,29.215 279.989,29.375 280.129 C 29.535 280.270,29.667 280.331,29.667 280.264 C 29.667 280.197,29.777 280.242,29.911 280.363 C 30.045 280.484,30.252 280.663,30.371 280.761 C 30.686 281.020,32.955 282.333,33.088 282.333 C 33.150 282.333,33.926 282.690,34.812 283.125 C 35.698 283.560,36.684 284.018,37.003 284.142 C 37.322 284.266,37.808 284.466,38.083 284.587 C 38.358 284.708,38.808 284.859,39.083 284.921 C 39.358 284.984,40.156 285.211,40.856 285.425 C 46.819 287.255,51.344 286.882,52.003 284.506 C 52.217 283.735,52.246 283.702,53.417 282.888 C 54.496 282.138,56.933 279.802,57.532 278.945 C 57.735 278.654,57.947 278.379,58.004 278.333 C 58.301 278.094,59.737 276.207,59.901 275.841 C 60.006 275.608,60.458 274.860,60.905 274.180 C 62.252 272.134,64.952 266.494,64.745 266.159 C 64.691 266.072,64.711 266.000,64.789 266.000 C 64.867 266.000,65.016 265.719,65.120 265.375 C 65.224 265.031,65.540 264.007,65.823 263.099 C 66.105 262.190,66.367 261.290,66.405 261.099 C 66.443 260.907,66.629 260.112,66.817 259.332 C 67.420 256.838,67.677 248.944,67.265 245.583 C 66.998 243.405,66.702 241.439,66.500 240.500 C 64.970 233.378,64.783 232.645,63.592 229.083 C 63.071 227.525,62.585 225.970,62.512 225.628 C 62.439 225.286,62.300 224.911,62.204 224.795 C 62.107 224.678,62.023 224.527,62.017 224.458 C 61.963 223.844,61.254 222.000,61.074 222.000 C 61.027 222.000,60.785 222.213,60.536 222.474 M338.674 222.242 C 338.563 222.375,338.447 222.618,338.416 222.783 C 338.385 222.948,338.344 223.121,338.326 223.167 C 338.308 223.213,338.303 223.306,338.314 223.375 C 338.324 223.444,338.250 223.500,338.147 223.500 C 338.044 223.500,337.999 223.646,338.047 223.827 C 338.094 224.007,338.036 224.235,337.918 224.333 C 337.722 224.495,337.619 224.820,337.470 225.750 C 337.441 225.933,337.373 226.121,337.319 226.167 C 337.109 226.346,336.853 227.357,336.952 227.615 C 337.018 227.788,336.990 227.847,336.876 227.776 C 336.705 227.671,335.946 229.647,335.765 230.667 C 335.725 230.896,335.680 231.083,335.666 231.083 C 335.652 231.083,335.614 231.196,335.580 231.333 C 335.546 231.471,335.177 232.933,334.760 234.583 C 333.759 238.537,333.288 240.807,333.388 241.189 C 333.432 241.360,333.401 241.458,333.318 241.407 C 333.235 241.356,333.154 241.562,333.138 241.865 C 333.108 242.447,333.058 242.862,333.001 243.000 C 332.960 243.101,332.884 243.730,332.742 245.167 C 332.558 247.028,332.513 255.562,332.682 256.597 C 332.867 257.730,332.946 258.387,332.978 259.052 C 332.990 259.309,333.070 259.476,333.156 259.423 C 333.245 259.368,333.278 259.514,333.234 259.760 C 333.189 260.007,333.223 260.152,333.312 260.096 C 333.399 260.043,333.430 260.146,333.382 260.331 C 333.335 260.513,333.353 260.794,333.424 260.956 C 333.494 261.118,333.577 261.400,333.609 261.584 C 333.724 262.247,335.001 266.033,335.154 266.167 C 335.247 266.247,335.299 266.417,335.425 267.055 C 335.561 267.737,335.700 267.999,335.871 267.893 C 335.977 267.828,336.004 267.859,335.935 267.970 C 335.872 268.073,335.944 268.347,336.096 268.579 C 336.247 268.810,336.331 269.000,336.281 269.000 C 336.098 269.000,338.578 273.619,339.428 274.863 C 339.910 275.567,340.353 276.298,340.413 276.488 C 340.473 276.678,340.630 276.833,340.761 276.833 C 340.893 276.833,341.000 276.942,341.000 277.074 C 341.000 277.206,341.167 277.431,341.370 277.574 C 341.574 277.717,341.684 277.833,341.614 277.833 C 341.475 277.833,341.683 278.118,342.355 278.844 C 342.596 279.105,342.765 279.346,342.732 279.380 C 342.606 279.505,345.957 282.608,346.876 283.217 C 347.479 283.617,347.833 283.968,347.833 284.166 C 347.833 284.339,347.910 284.527,348.003 284.585 C 348.096 284.643,348.136 284.747,348.093 284.818 C 347.929 285.083,348.949 285.980,349.750 286.274 C 352.469 287.272,360.095 285.736,365.083 283.186 C 365.725 282.858,366.406 282.542,366.597 282.483 C 366.788 282.425,367.673 281.936,368.563 281.397 C 369.453 280.858,370.468 280.267,370.818 280.083 C 373.248 278.812,378.464 274.107,381.000 270.900 C 381.138 270.726,381.532 270.238,381.875 269.816 C 382.219 269.394,382.500 268.982,382.501 268.900 C 382.501 268.817,382.782 268.375,383.126 267.917 C 384.047 266.687,384.689 265.667,384.544 265.664 C 384.474 265.663,384.499 265.606,384.600 265.539 C 384.700 265.472,385.083 264.843,385.451 264.143 C 385.818 263.442,386.285 262.636,386.488 262.350 C 386.691 262.065,387.048 261.363,387.280 260.791 C 387.512 260.218,388.103 258.907,388.592 257.877 C 389.081 256.847,389.796 255.122,390.181 254.044 C 390.566 252.966,390.935 252.008,391.000 251.917 C 391.192 251.649,392.500 247.743,392.500 247.438 C 392.500 247.285,392.719 246.468,392.986 245.622 C 393.254 244.776,393.561 243.746,393.670 243.333 C 393.779 242.921,393.935 242.411,394.017 242.200 C 394.267 241.560,394.197 241.333,393.750 241.333 C 393.521 241.333,393.333 241.413,393.333 241.510 C 393.333 241.607,393.271 241.648,393.196 241.601 C 393.120 241.555,392.614 241.627,392.071 241.761 C 391.528 241.896,390.939 242.040,390.762 242.082 C 390.586 242.124,390.370 242.230,390.284 242.316 C 390.197 242.403,390.036 242.439,389.925 242.397 C 389.815 242.354,389.505 242.409,389.237 242.517 C 388.969 242.626,388.519 242.738,388.236 242.768 C 387.954 242.797,387.504 242.910,387.236 243.019 C 386.969 243.128,386.637 243.240,386.500 243.266 C 385.750 243.412,384.833 243.727,384.833 243.839 C 384.833 243.911,384.672 243.927,384.474 243.875 C 384.204 243.804,384.149 243.836,384.251 244.002 C 384.349 244.161,384.313 244.195,384.123 244.122 C 383.893 244.033,381.730 244.754,381.500 244.996 C 381.454 245.044,381.232 245.104,381.007 245.129 C 380.782 245.154,380.549 245.254,380.489 245.352 C 380.429 245.449,380.331 245.519,380.272 245.507 C 379.935 245.440,379.018 245.728,379.108 245.873 C 379.166 245.967,379.110 246.009,378.982 245.966 C 378.854 245.923,378.337 246.068,377.833 246.288 C 377.329 246.508,376.710 246.776,376.458 246.884 C 376.206 246.993,376.000 247.138,376.000 247.207 C 376.000 247.277,375.944 247.317,375.875 247.298 C 375.806 247.278,375.575 247.360,375.360 247.478 C 375.146 247.597,374.771 247.730,374.527 247.773 C 374.283 247.817,374.058 247.924,374.028 248.010 C 373.997 248.096,373.871 248.167,373.747 248.167 C 373.395 248.167,370.500 249.672,370.500 249.855 C 370.500 249.946,370.431 249.977,370.347 249.925 C 370.262 249.873,370.094 249.929,369.972 250.049 C 369.777 250.242,369.160 250.545,369.040 250.508 C 369.016 250.501,368.453 250.862,367.790 251.310 C 367.126 251.759,366.340 252.250,366.042 252.401 C 365.744 252.552,365.500 252.753,365.500 252.847 C 365.500 252.942,365.439 252.982,365.364 252.935 C 365.289 252.889,365.122 252.997,364.994 253.176 C 364.865 253.354,364.683 253.500,364.588 253.501 C 364.494 253.501,364.177 253.726,363.884 254.001 C 363.591 254.275,363.302 254.500,363.241 254.500 C 363.181 254.500,362.984 254.688,362.804 254.917 C 362.623 255.146,362.398 255.333,362.302 255.333 C 362.207 255.333,361.162 256.311,359.981 257.507 C 358.800 258.702,357.833 259.583,357.833 259.465 C 357.832 259.071,357.337 254.258,357.245 253.750 C 357.099 252.946,356.813 251.777,356.674 251.417 C 356.402 250.712,355.986 249.379,355.915 248.986 C 355.874 248.760,355.651 248.109,355.420 247.541 C 355.189 246.972,355.000 246.432,355.000 246.342 C 355.000 246.061,354.134 244.257,353.936 244.128 C 353.834 244.060,353.801 244.004,353.862 244.003 C 353.924 244.001,353.644 243.344,353.240 242.542 C 352.836 241.740,352.504 241.021,352.502 240.944 C 352.500 240.805,351.510 239.035,350.963 238.192 C 350.805 237.949,350.371 237.213,349.998 236.556 C 349.624 235.900,349.210 235.272,349.076 235.161 C 348.943 235.050,348.833 234.900,348.833 234.828 C 348.833 234.415,343.949 227.667,343.651 227.667 C 343.557 227.667,343.523 227.598,343.575 227.514 C 343.626 227.430,343.612 227.337,343.543 227.306 C 343.473 227.275,343.120 226.856,342.757 226.375 C 342.395 225.894,342.039 225.500,341.966 225.500 C 341.893 225.500,341.833 225.412,341.833 225.306 C 341.833 225.119,341.648 224.896,340.311 223.476 C 339.978 223.123,339.734 222.833,339.769 222.833 C 339.803 222.833,339.668 222.646,339.469 222.417 C 339.049 221.934,338.947 221.912,338.674 222.242 M76.000 273.077 C 76.000 273.212,75.844 273.405,75.654 273.507 C 75.428 273.628,75.344 273.787,75.413 273.966 C 75.470 274.117,75.464 274.186,75.398 274.121 C 75.333 274.055,75.138 274.318,74.965 274.704 C 74.791 275.091,74.592 275.447,74.522 275.495 C 74.296 275.651,73.333 277.449,73.333 277.715 C 73.333 277.856,73.265 277.997,73.182 278.028 C 72.936 278.118,70.318 283.552,70.407 283.786 C 70.453 283.904,70.424 284.000,70.344 284.000 C 70.143 284.000,69.813 284.999,69.944 285.212 C 70.007 285.312,69.971 285.335,69.859 285.266 C 69.740 285.192,69.667 285.265,69.667 285.457 C 69.667 285.627,69.602 285.838,69.522 285.925 C 69.113 286.374,67.598 291.087,67.772 291.369 C 67.816 291.441,67.769 291.500,67.666 291.500 C 67.563 291.500,67.498 291.631,67.521 291.792 C 67.545 291.952,67.515 292.233,67.455 292.417 C 67.395 292.600,67.308 292.938,67.262 293.167 C 67.215 293.396,67.097 293.915,66.998 294.320 C 66.900 294.725,66.854 295.147,66.897 295.258 C 66.939 295.369,66.910 295.525,66.832 295.605 C 66.443 296.004,66.133 302.667,66.503 302.667 C 66.601 302.667,66.629 302.843,66.568 303.085 C 66.454 303.539,66.787 305.636,67.021 305.932 C 67.343 306.342,66.928 306.245,65.707 305.624 C 64.997 305.263,64.379 304.911,64.333 304.840 C 64.183 304.611,63.160 304.151,63.009 304.244 C 62.928 304.294,62.837 304.276,62.806 304.203 C 62.714 303.983,61.029 303.165,60.595 303.129 C 60.373 303.111,60.218 303.051,60.252 302.996 C 60.308 302.906,57.406 301.929,57.296 302.000 C 57.271 302.017,56.950 301.918,56.583 301.781 C 55.578 301.406,54.194 300.993,54.047 301.025 C 53.975 301.041,53.694 300.962,53.422 300.850 C 53.149 300.739,52.793 300.682,52.630 300.725 C 52.467 300.767,52.333 300.744,52.333 300.673 C 52.333 300.562,51.987 300.486,50.333 300.238 C 50.196 300.217,49.671 300.163,49.167 300.117 C 48.663 300.072,48.119 299.981,47.958 299.916 C 47.798 299.851,47.554 299.841,47.417 299.894 C 47.279 299.946,47.167 299.929,47.167 299.856 C 47.167 299.782,47.073 299.717,46.958 299.711 C 46.645 299.695,45.307 299.508,44.833 299.416 C 44.174 299.286,41.848 299.105,40.708 299.093 C 40.135 299.088,39.667 299.032,39.667 298.969 C 39.667 298.906,39.535 298.852,39.375 298.850 C 39.215 298.848,37.208 298.802,34.917 298.747 C 30.761 298.648,30.130 298.710,30.434 299.190 C 30.514 299.315,30.579 299.454,30.581 299.500 C 30.585 299.637,31.955 301.764,32.201 302.016 C 32.327 302.145,32.561 302.531,32.722 302.875 C 32.884 303.219,33.092 303.500,33.184 303.500 C 33.277 303.500,33.315 303.561,33.269 303.635 C 33.223 303.710,33.376 303.991,33.610 304.260 C 33.843 304.530,34.264 305.069,34.545 305.458 C 34.826 305.848,35.119 306.167,35.195 306.167 C 35.271 306.167,35.333 306.270,35.333 306.395 C 35.333 306.622,36.819 308.595,37.232 308.917 C 37.350 309.008,37.477 309.172,37.515 309.280 C 37.726 309.885,45.269 317.620,45.460 317.429 C 45.506 317.383,45.693 317.534,45.874 317.764 C 46.056 317.995,46.246 318.143,46.296 318.093 C 46.346 318.043,46.484 318.140,46.602 318.310 C 47.059 318.962,52.454 322.345,53.333 322.531 C 53.471 322.560,53.621 322.624,53.667 322.674 C 53.822 322.844,57.288 324.333,57.528 324.333 C 57.659 324.333,57.838 324.403,57.925 324.489 C 58.087 324.649,59.191 324.976,62.417 325.820 C 71.626 328.229,81.333 327.510,81.333 324.419 C 81.333 323.970,81.514 323.676,82.273 322.890 C 84.186 320.907,86.564 316.935,87.295 314.500 C 87.391 314.179,87.662 313.279,87.897 312.500 C 89.542 307.040,89.887 301.327,88.827 297.083 C 88.644 296.350,88.459 295.600,88.416 295.417 C 87.878 293.114,86.898 290.480,85.471 287.500 C 85.097 286.721,84.738 285.971,84.672 285.833 C 84.279 285.010,83.422 283.565,83.267 283.461 C 83.166 283.394,83.143 283.337,83.217 283.336 C 83.290 283.334,83.168 283.090,82.944 282.792 C 82.721 282.494,82.487 282.081,82.425 281.875 C 82.362 281.669,82.241 281.500,82.155 281.500 C 82.070 281.500,82.019 281.440,82.042 281.366 C 82.087 281.221,80.951 279.312,80.612 278.963 C 80.498 278.846,80.199 278.394,79.946 277.958 C 79.693 277.523,79.410 277.167,79.316 277.167 C 79.223 277.167,79.193 277.092,79.250 277.000 C 79.307 276.908,79.291 276.833,79.216 276.833 C 79.141 276.833,79.005 276.694,78.915 276.524 C 78.824 276.355,78.395 275.736,77.960 275.149 C 77.526 274.563,76.968 273.802,76.720 273.458 C 76.246 272.800,76.000 272.670,76.000 273.077 M323.542 273.125 C 323.427 273.163,323.333 273.266,323.333 273.354 C 323.333 273.442,323.261 273.605,323.172 273.715 C 322.020 275.151,321.500 275.855,321.500 275.980 C 321.500 276.063,321.383 276.176,321.239 276.231 C 321.096 276.286,321.026 276.407,321.083 276.499 C 321.140 276.591,321.120 276.667,321.038 276.667 C 320.956 276.667,320.783 276.873,320.653 277.125 C 320.523 277.377,320.323 277.683,320.208 277.804 C 319.794 278.242,318.987 279.500,319.117 279.505 C 319.190 279.508,319.104 279.621,318.926 279.755 C 318.749 279.890,318.674 280.001,318.760 280.003 C 318.849 280.004,318.845 280.058,318.750 280.128 C 318.513 280.302,317.833 281.292,317.833 281.464 C 317.833 281.543,317.571 281.977,317.250 282.428 C 316.929 282.880,316.667 283.312,316.667 283.390 C 316.667 283.467,316.518 283.720,316.336 283.952 C 316.154 284.183,316.045 284.439,316.095 284.520 C 316.145 284.600,316.116 284.667,316.031 284.667 C 315.875 284.667,314.994 286.387,314.752 287.167 C 314.680 287.396,314.568 287.621,314.502 287.667 C 314.312 287.799,313.167 290.297,313.167 290.579 C 313.167 290.719,313.099 290.833,313.017 290.833 C 312.878 290.833,312.446 292.313,312.445 292.792 C 312.445 292.906,312.369 293.000,312.278 293.000 C 312.186 293.000,312.160 293.049,312.221 293.110 C 312.281 293.170,312.263 293.301,312.181 293.401 C 312.043 293.568,311.528 295.244,311.433 295.833 C 311.410 295.971,311.342 296.234,311.281 296.419 C 311.220 296.603,311.127 297.016,311.076 297.335 C 311.024 297.655,310.948 298.104,310.907 298.333 C 310.568 300.207,310.500 301.243,310.572 303.417 C 310.617 304.792,310.689 306.179,310.731 306.500 C 311.023 308.740,311.573 311.141,312.189 312.875 C 312.457 313.631,312.720 314.475,312.772 314.750 C 312.824 315.025,312.953 315.305,313.058 315.372 C 313.164 315.440,313.182 315.496,313.099 315.497 C 313.016 315.499,313.073 315.637,313.225 315.805 C 313.376 315.973,313.461 316.150,313.413 316.198 C 313.326 316.285,314.451 318.503,314.665 318.667 C 314.724 318.712,314.947 319.115,315.160 319.560 C 315.652 320.590,316.469 321.663,317.672 322.862 C 318.501 323.688,318.632 323.909,318.710 324.607 C 318.760 325.046,318.876 325.431,318.968 325.462 C 319.060 325.492,319.312 325.673,319.526 325.863 C 320.768 326.963,326.117 327.636,330.000 327.180 C 330.871 327.078,331.921 326.954,332.333 326.904 C 333.657 326.745,337.202 325.976,338.833 325.494 C 339.704 325.237,340.698 324.975,341.042 324.911 C 341.385 324.848,341.667 324.730,341.667 324.648 C 341.667 324.567,341.723 324.509,341.792 324.520 C 341.860 324.531,341.973 324.521,342.042 324.499 C 342.110 324.477,342.223 324.442,342.292 324.423 C 342.604 324.335,343.170 324.107,344.250 323.636 C 344.892 323.356,345.934 322.909,346.567 322.643 C 347.774 322.136,349.349 321.243,350.333 320.505 C 350.654 320.265,351.119 319.982,351.366 319.875 C 351.613 319.769,352.101 319.431,352.449 319.124 C 352.798 318.818,353.421 318.311,353.833 317.999 C 356.016 316.347,361.194 311.069,363.000 308.656 C 363.229 308.350,363.773 307.690,364.208 307.190 C 364.644 306.691,365.000 306.204,365.000 306.110 C 365.000 306.015,365.288 305.596,365.640 305.177 C 365.992 304.759,366.715 303.742,367.247 302.917 C 367.779 302.092,368.581 300.870,369.030 300.203 C 369.479 299.535,369.796 298.908,369.735 298.809 C 369.571 298.544,360.218 298.789,358.333 299.109 C 358.012 299.163,357.412 299.230,357.000 299.257 C 356.587 299.285,355.912 299.347,355.500 299.397 C 355.087 299.446,354.319 299.535,353.792 299.593 C 353.265 299.652,352.833 299.760,352.833 299.834 C 352.833 299.908,352.684 299.930,352.502 299.882 C 352.321 299.835,352.039 299.849,351.877 299.915 C 351.582 300.034,350.171 300.210,349.625 300.195 C 349.465 300.191,349.333 300.254,349.333 300.336 C 349.333 300.418,349.165 300.477,348.958 300.469 C 348.046 300.430,347.650 300.505,347.766 300.692 C 347.842 300.815,347.811 300.839,347.682 300.759 C 347.451 300.617,343.780 301.478,343.694 301.694 C 343.663 301.772,343.585 301.803,343.520 301.763 C 343.456 301.723,342.768 301.916,341.993 302.193 C 341.218 302.470,340.396 302.731,340.167 302.775 C 339.938 302.818,339.726 302.919,339.698 303.000 C 339.669 303.082,339.525 303.102,339.379 303.046 C 339.187 302.972,339.150 303.006,339.248 303.164 C 339.339 303.311,339.320 303.345,339.193 303.266 C 339.001 303.148,338.026 303.601,337.794 303.917 C 337.727 304.008,337.671 304.031,337.669 303.968 C 337.666 303.812,336.168 304.471,335.750 304.812 C 335.261 305.210,334.705 305.500,334.429 305.500 C 334.295 305.500,334.133 305.587,334.067 305.692 C 333.989 305.820,334.022 305.839,334.167 305.750 C 334.308 305.663,334.345 305.680,334.270 305.800 C 334.207 305.902,334.046 305.943,333.911 305.892 C 333.777 305.840,333.667 305.881,333.667 305.982 C 333.667 306.084,333.554 306.167,333.417 306.167 C 333.279 306.167,333.167 306.242,333.167 306.333 C 333.167 306.425,333.098 306.500,333.015 306.500 C 332.931 306.500,332.961 306.070,333.081 305.542 C 333.789 302.430,333.752 298.507,332.977 294.628 C 332.789 293.687,332.567 292.532,332.485 292.063 C 332.340 291.237,331.196 287.603,330.759 286.583 C 330.417 285.785,330.037 284.800,329.810 284.125 C 329.694 283.781,329.540 283.500,329.467 283.500 C 329.393 283.500,329.347 283.444,329.364 283.375 C 329.381 283.306,329.269 282.960,329.114 282.605 C 328.960 282.250,328.833 281.893,328.833 281.813 C 328.833 281.733,328.758 281.667,328.667 281.667 C 328.575 281.667,328.500 281.531,328.500 281.365 C 328.500 281.199,328.237 280.628,327.917 280.095 C 327.596 279.562,327.333 279.053,327.333 278.964 C 327.333 278.760,326.798 277.785,326.611 277.648 C 326.534 277.592,326.480 277.479,326.490 277.398 C 326.516 277.179,325.945 276.167,325.795 276.167 C 325.725 276.167,325.667 276.028,325.667 275.859 C 325.667 275.690,325.517 275.416,325.333 275.250 C 325.150 275.084,325.000 274.836,325.000 274.698 C 325.000 274.561,324.813 274.202,324.583 273.902 C 324.354 273.601,324.167 273.288,324.167 273.206 C 324.167 273.046,323.886 273.010,323.542 273.125 M297.147 310.597 C 297.136 310.681,297.139 310.815,297.154 310.895 C 297.168 310.975,297.079 311.002,296.954 310.954 C 296.830 310.906,296.494 311.066,296.208 311.309 C 295.922 311.551,295.312 312.012,294.852 312.333 C 294.392 312.654,294.012 312.973,294.008 313.042 C 294.004 313.110,293.918 313.167,293.818 313.167 C 293.549 313.167,292.750 313.833,292.750 314.057 C 292.750 314.163,292.661 314.250,292.551 314.250 C 292.442 314.250,292.195 314.419,292.003 314.625 C 291.811 314.831,291.577 315.000,291.484 315.000 C 291.390 315.000,291.359 315.074,291.415 315.165 C 291.472 315.256,291.411 315.289,291.279 315.238 C 291.142 315.186,290.896 315.330,290.704 315.573 C 290.520 315.808,290.294 316.000,290.204 316.000 C 290.113 316.000,289.996 316.165,289.943 316.368 C 289.890 316.570,289.799 316.688,289.741 316.630 C 289.650 316.539,289.019 317.009,288.435 317.605 C 286.037 320.052,283.260 323.061,283.292 323.179 C 283.315 323.264,283.267 323.333,283.185 323.333 C 283.059 323.333,281.535 325.270,280.875 326.268 C 280.284 327.162,279.457 328.640,278.903 329.792 C 278.561 330.502,278.183 331.279,278.062 331.518 C 277.941 331.758,277.888 331.999,277.945 332.056 C 278.001 332.112,277.969 332.254,277.874 332.371 C 277.733 332.544,277.376 333.579,277.168 334.417 C 277.145 334.508,277.058 334.765,276.973 334.987 C 276.889 335.209,276.859 335.494,276.908 335.621 C 276.956 335.747,276.936 335.814,276.864 335.769 C 276.697 335.666,276.109 338.439,276.250 338.666 C 276.307 338.758,276.266 338.833,276.159 338.833 C 276.033 338.833,275.987 339.067,276.028 339.499 C 276.063 339.864,276.026 340.186,275.945 340.213 C 275.545 340.346,275.725 348.353,276.135 348.663 C 276.198 348.711,276.265 349.022,276.284 349.355 C 276.303 349.688,276.518 350.458,276.762 351.066 C 277.146 352.027,277.178 352.237,277.003 352.659 C 276.473 353.939,277.626 355.165,280.877 356.776 C 281.313 356.992,281.801 357.195,281.960 357.226 C 282.120 357.258,282.362 357.326,282.500 357.379 C 282.761 357.478,283.778 357.782,285.333 358.224 C 285.837 358.368,286.512 358.523,286.833 358.571 C 287.154 358.618,287.792 358.739,288.250 358.841 C 288.708 358.942,290.733 359.054,292.750 359.089 C 297.499 359.173,298.248 359.068,303.583 357.583 C 305.444 357.065,310.989 354.292,312.649 353.048 C 313.052 352.747,313.475 352.500,313.589 352.500 C 313.770 352.500,315.775 351.124,316.000 350.845 C 316.046 350.788,316.636 350.368,317.312 349.912 C 317.988 349.456,318.577 348.990,318.622 348.875 C 318.666 348.760,318.792 348.667,318.901 348.667 C 319.010 348.667,319.358 348.407,319.675 348.089 C 319.991 347.771,320.326 347.508,320.419 347.505 C 320.647 347.498,322.833 345.515,322.833 345.315 C 322.833 345.228,322.702 345.115,322.542 345.065 C 322.381 345.014,321.926 344.821,321.531 344.636 C 321.135 344.451,320.770 344.341,320.719 344.392 C 320.669 344.443,320.523 344.380,320.395 344.252 C 320.267 344.124,320.012 344.049,319.827 344.085 C 319.642 344.120,319.528 344.089,319.573 344.016 C 319.647 343.897,317.827 343.250,317.417 343.250 C 317.325 343.250,317.206 343.190,317.152 343.117 C 317.098 343.043,316.873 342.974,316.652 342.962 C 316.431 342.951,316.156 342.870,316.042 342.783 C 315.927 342.697,315.833 342.665,315.833 342.712 C 315.833 342.810,315.287 342.683,313.531 342.177 C 312.861 341.984,312.231 341.877,312.131 341.939 C 312.030 342.001,311.993 341.979,312.048 341.891 C 312.155 341.717,308.538 340.906,308.377 341.068 C 308.324 341.121,308.199 341.097,308.099 341.014 C 307.925 340.872,307.190 340.756,305.167 340.551 C 300.936 340.123,294.683 340.571,293.704 341.373 C 293.261 341.737,293.370 341.363,294.029 340.262 C 294.404 339.636,294.846 338.776,295.011 338.353 C 295.176 337.930,295.584 336.880,295.917 336.019 C 297.022 333.167,297.310 331.665,297.851 325.917 C 298.168 322.553,297.747 311.022,297.292 310.569 C 297.223 310.500,297.158 310.513,297.147 310.597 M102.750 310.833 C 102.807 310.925,102.784 311.000,102.700 311.000 C 102.615 311.000,102.499 311.469,102.440 312.042 C 102.382 312.615,102.278 313.646,102.209 314.333 C 102.140 315.021,102.083 316.240,102.083 317.042 C 102.083 317.844,102.018 318.500,101.938 318.500 C 101.699 318.500,102.048 327.475,102.293 327.658 C 102.361 327.709,102.422 328.087,102.428 328.500 C 102.437 329.157,102.558 330.222,102.710 331.000 C 102.737 331.137,102.825 331.355,102.905 331.484 C 102.996 331.629,102.990 331.680,102.890 331.618 C 102.787 331.555,102.790 331.819,102.897 332.343 C 102.990 332.796,103.119 333.167,103.184 333.167 C 103.249 333.167,103.263 333.317,103.215 333.500 C 103.164 333.697,103.210 333.833,103.328 333.833 C 103.438 333.833,103.496 333.927,103.456 334.042 C 103.373 334.286,103.978 336.127,104.457 337.083 C 104.641 337.450,104.999 338.256,105.254 338.875 C 105.508 339.494,105.780 340.000,105.858 340.000 C 105.936 340.000,105.985 340.056,105.966 340.125 C 105.947 340.194,106.059 340.490,106.215 340.783 L 106.499 341.315 105.640 341.060 C 105.167 340.919,104.607 340.838,104.395 340.878 C 104.183 340.919,104.043 340.898,104.084 340.832 C 104.235 340.589,101.659 340.374,98.630 340.378 C 96.915 340.381,95.542 340.434,95.581 340.497 C 95.620 340.559,95.313 340.580,94.899 340.543 C 94.485 340.506,94.050 340.556,93.933 340.653 C 93.815 340.751,93.680 340.791,93.632 340.743 C 93.583 340.695,93.103 340.732,92.564 340.827 C 92.024 340.922,91.358 341.034,91.083 341.078 C 89.590 341.313,89.327 341.376,89.239 341.517 C 89.187 341.602,89.087 341.637,89.017 341.594 C 88.947 341.551,88.483 341.627,87.987 341.765 C 87.490 341.902,86.880 342.044,86.632 342.082 C 86.383 342.119,85.708 342.294,85.132 342.472 C 84.555 342.649,83.652 342.884,83.125 342.992 C 82.598 343.101,82.167 343.252,82.167 343.327 C 82.167 343.402,82.073 343.459,81.958 343.455 C 81.387 343.434,81.155 343.514,81.266 343.692 C 81.336 343.806,81.312 343.840,81.206 343.775 C 81.108 343.714,80.815 343.752,80.556 343.860 C 80.002 344.089,80.044 344.074,79.458 344.240 C 79.206 344.311,79.000 344.441,79.000 344.528 C 79.000 344.615,78.933 344.645,78.851 344.595 C 78.674 344.485,77.167 345.126,77.167 345.311 C 77.167 345.525,77.963 346.148,78.083 346.028 C 78.144 345.967,78.169 346.029,78.139 346.167 C 78.108 346.305,78.182 346.396,78.304 346.371 C 78.425 346.346,78.482 346.395,78.429 346.480 C 78.377 346.565,78.748 346.909,79.254 347.245 C 79.760 347.581,80.342 348.031,80.546 348.245 C 81.079 348.804,86.178 352.500,86.416 352.500 C 86.472 352.500,87.136 352.908,87.893 353.406 C 88.650 353.904,89.377 354.335,89.509 354.364 C 89.642 354.393,89.787 354.463,89.833 354.519 C 89.998 354.722,91.333 355.337,91.336 355.212 C 91.337 355.141,91.394 355.164,91.461 355.263 C 91.894 355.901,97.182 357.962,99.500 358.398 C 99.729 358.441,100.517 358.599,101.250 358.750 C 103.031 359.116,108.122 359.270,110.083 359.017 C 115.809 358.280,120.201 356.725,122.297 354.693 L 123.044 353.970 122.950 352.943 C 122.872 352.095,122.938 351.671,123.330 350.500 C 123.590 349.721,123.848 348.783,123.902 348.417 C 124.602 343.725,124.232 339.142,122.772 334.417 C 122.743 334.325,122.659 333.950,122.584 333.583 C 122.509 333.217,122.334 332.654,122.194 332.333 C 122.055 332.012,121.924 331.660,121.903 331.551 C 121.867 331.361,121.607 330.841,119.973 327.691 C 119.575 326.925,119.100 326.134,118.917 325.933 C 118.733 325.733,118.290 325.140,117.931 324.618 C 117.572 324.095,117.215 323.667,117.139 323.667 C 117.063 323.667,117.000 323.562,117.000 323.434 C 117.000 323.306,116.737 322.971,116.417 322.689 C 116.096 322.407,115.833 322.126,115.833 322.063 C 115.833 321.867,114.189 320.200,114.092 320.297 C 114.041 320.347,114.000 320.280,114.000 320.147 C 114.000 319.926,112.357 318.167,112.151 318.167 C 112.102 318.167,111.615 317.735,111.068 317.208 C 110.521 316.681,109.738 315.976,109.328 315.641 C 108.919 315.306,108.208 314.689,107.750 314.270 C 107.292 313.850,106.871 313.506,106.815 313.504 C 106.724 313.500,105.781 312.810,105.208 312.329 C 105.094 312.232,105.000 312.191,105.000 312.236 C 105.000 312.281,104.826 312.153,104.612 311.951 C 103.972 311.344,103.500 310.996,103.495 311.127 C 103.492 311.194,103.413 311.119,103.320 310.958 C 103.227 310.798,103.037 310.667,102.899 310.667 C 102.760 310.667,102.693 310.742,102.750 310.833 M132.268 332.137 C 132.217 332.220,132.276 332.820,132.400 333.470 C 132.524 334.121,132.585 334.693,132.535 334.743 C 132.485 334.793,132.516 334.833,132.603 334.833 C 132.690 334.833,132.773 335.077,132.787 335.375 C 132.812 335.922,132.906 336.360,133.504 338.706 C 133.615 339.141,133.771 339.455,133.851 339.406 C 133.931 339.356,133.954 339.425,133.903 339.559 C 133.815 339.787,134.357 341.803,134.619 342.223 C 134.686 342.329,134.763 342.563,134.791 342.743 C 134.819 342.922,134.896 343.110,134.963 343.159 C 135.030 343.209,135.111 343.475,135.143 343.750 C 135.175 344.025,135.275 344.296,135.365 344.352 C 135.455 344.408,135.508 344.483,135.483 344.519 C 135.459 344.554,135.537 344.846,135.659 345.167 C 135.780 345.488,135.898 345.832,135.921 345.933 C 135.984 346.207,137.974 350.221,138.156 350.441 C 138.242 350.545,138.268 350.677,138.212 350.732 C 138.157 350.788,138.199 350.833,138.306 350.833 C 138.412 350.833,138.500 350.909,138.500 351.001 C 138.500 351.229,140.004 353.384,140.280 353.550 C 140.401 353.623,140.500 353.802,140.500 353.947 C 140.500 354.092,140.631 354.333,140.792 354.482 C 140.952 354.631,141.473 355.175,141.950 355.691 C 142.426 356.206,142.857 356.587,142.908 356.536 C 142.959 356.486,143.000 356.565,143.000 356.711 C 143.000 356.858,143.294 357.189,143.653 357.447 C 144.876 358.327,144.820 358.450,143.233 358.377 C 142.446 358.341,141.833 358.380,141.833 358.466 C 141.833 358.550,141.665 358.618,141.458 358.616 C 140.370 358.605,139.823 358.682,139.915 358.831 C 139.974 358.927,139.906 358.953,139.753 358.895 C 139.607 358.839,139.135 358.886,138.703 359.000 C 137.078 359.429,135.072 360.046,134.750 360.217 C 134.567 360.314,134.197 360.418,133.928 360.449 C 133.659 360.479,133.116 360.694,132.720 360.926 C 132.324 361.158,132.000 361.310,132.000 361.263 C 132.000 361.217,131.419 361.467,130.708 361.818 C 129.998 362.169,128.800 362.740,128.047 363.086 C 127.280 363.438,126.722 363.789,126.781 363.883 C 126.839 363.977,126.802 364.001,126.699 363.937 C 126.551 363.845,124.859 364.794,124.500 365.170 C 124.392 365.283,123.433 365.705,123.362 365.671 C 123.333 365.657,123.169 365.805,123.000 366.000 C 122.831 366.195,122.650 366.332,122.600 366.303 C 122.470 366.229,121.167 367.051,121.167 367.206 C 121.167 367.276,121.083 367.333,120.982 367.333 C 120.819 367.333,119.002 368.534,118.454 369.003 C 118.342 369.099,118.100 369.283,117.917 369.410 L 117.583 369.643 117.917 369.760 C 118.100 369.824,118.876 370.167,119.641 370.522 C 120.407 370.876,121.123 371.167,121.233 371.167 C 121.343 371.167,121.505 371.232,121.592 371.313 C 121.769 371.476,124.686 372.449,125.333 372.561 C 125.563 372.600,125.938 372.708,126.167 372.801 C 127.241 373.235,130.207 374.052,132.000 374.407 C 132.229 374.452,132.753 374.571,133.163 374.671 C 133.574 374.771,134.043 374.817,134.205 374.775 C 134.367 374.733,134.540 374.763,134.589 374.842 C 134.638 374.921,134.881 374.977,135.130 374.967 C 135.380 374.956,136.248 375.037,137.060 375.147 C 138.719 375.372,143.358 375.379,144.536 375.159 C 144.960 375.080,145.631 375.001,146.028 374.984 C 147.488 374.921,150.810 374.044,152.583 373.253 C 153.042 373.048,153.717 372.777,154.083 372.649 C 155.442 372.178,158.985 370.239,160.092 369.361 C 163.290 366.825,164.298 365.233,163.531 363.932 C 163.263 363.477,163.180 363.023,163.155 361.868 C 163.137 361.053,163.066 360.056,162.998 359.652 C 162.566 357.089,162.306 355.910,162.162 355.861 C 162.072 355.830,162.034 355.746,162.079 355.673 C 162.175 355.519,161.604 354.093,160.742 352.333 C 160.405 351.646,159.975 350.765,159.785 350.375 C 159.596 349.985,159.379 349.667,159.304 349.667 C 159.228 349.667,159.181 349.610,159.198 349.542 C 159.239 349.379,158.151 347.667,158.006 347.667 C 157.945 347.667,157.726 347.367,157.520 347.000 C 157.314 346.633,157.075 346.333,156.989 346.333 C 156.904 346.333,156.833 346.224,156.833 346.091 C 156.833 345.840,152.691 341.587,152.567 341.711 C 152.529 341.749,152.186 341.492,151.804 341.140 C 151.423 340.788,151.041 340.500,150.956 340.500 C 150.871 340.500,150.227 340.097,149.525 339.606 C 148.109 338.612,147.263 338.141,147.104 338.257 C 147.047 338.299,147.039 338.282,147.087 338.218 C 147.171 338.108,145.125 336.994,144.725 336.932 C 144.620 336.915,144.235 336.695,143.870 336.442 C 143.505 336.189,143.053 335.971,142.865 335.957 C 142.677 335.942,142.550 335.887,142.583 335.834 C 142.616 335.780,142.255 335.602,141.780 335.437 C 141.305 335.271,140.204 334.813,139.333 334.418 C 138.462 334.024,136.700 333.360,135.417 332.945 C 132.379 331.961,132.377 331.961,132.268 332.137 M267.248 332.169 C 267.191 332.263,267.083 332.301,267.009 332.256 C 266.884 332.178,265.679 332.512,264.917 332.834 C 264.733 332.912,264.060 333.137,263.420 333.335 C 262.781 333.534,261.535 334.027,260.653 334.431 C 259.770 334.836,258.940 335.167,258.807 335.167 C 258.675 335.167,258.478 335.256,258.369 335.364 C 258.260 335.473,258.007 335.587,257.807 335.618 C 257.607 335.648,257.336 335.762,257.205 335.871 C 257.074 335.980,256.855 336.085,256.719 336.105 C 256.582 336.125,256.340 336.260,256.181 336.404 C 256.021 336.548,255.795 336.667,255.679 336.667 C 255.563 336.667,255.269 336.804,255.026 336.971 C 254.782 337.138,254.340 337.372,254.042 337.491 C 253.744 337.610,253.500 337.773,253.500 337.854 C 253.500 337.934,253.360 338.000,253.189 338.000 C 253.018 338.000,252.174 338.469,251.314 339.042 C 250.454 339.616,249.544 340.191,249.292 340.320 C 249.040 340.450,248.833 340.661,248.833 340.788 C 248.833 340.915,248.760 340.974,248.669 340.918 C 248.579 340.863,248.247 341.076,247.930 341.392 C 247.614 341.708,247.320 341.931,247.277 341.888 C 247.189 341.800,243.581 345.371,243.116 346.006 C 242.951 346.232,242.522 346.829,242.163 347.333 C 241.804 347.837,241.433 348.341,241.338 348.451 C 241.244 348.562,241.167 348.731,241.167 348.826 C 241.167 348.922,241.097 349.000,241.011 349.000 C 240.926 349.000,240.803 349.165,240.739 349.367 C 240.675 349.569,240.519 349.838,240.393 349.964 C 240.267 350.090,240.206 350.262,240.258 350.347 C 240.310 350.431,240.283 350.500,240.197 350.500 C 240.061 350.500,239.283 352.049,239.259 352.367 C 239.254 352.431,239.156 352.577,239.042 352.692 C 238.927 352.806,238.833 353.029,238.833 353.186 C 238.833 353.343,238.754 353.499,238.658 353.531 C 238.561 353.563,238.460 353.701,238.433 353.836 C 238.406 353.972,238.299 354.292,238.194 354.547 C 238.090 354.803,238.015 355.065,238.028 355.131 C 238.041 355.196,237.935 355.512,237.792 355.833 C 237.649 356.154,237.509 356.642,237.481 356.917 C 237.453 357.192,237.379 357.492,237.317 357.583 C 237.047 357.985,236.800 359.915,236.762 361.927 C 236.738 363.158,236.665 363.546,236.366 364.030 C 235.923 364.748,235.919 364.890,236.326 365.786 C 236.759 366.739,240.167 370.000,240.731 370.000 C 240.774 370.000,241.414 370.372,242.154 370.826 C 242.894 371.280,243.500 371.612,243.500 371.564 C 243.500 371.516,243.605 371.581,243.733 371.709 C 243.984 371.960,248.114 373.643,249.167 373.922 C 249.213 373.935,249.463 374.033,249.722 374.140 C 249.982 374.248,250.258 374.296,250.336 374.248 C 250.413 374.200,250.527 374.243,250.589 374.342 C 250.650 374.441,250.803 374.483,250.928 374.435 C 251.053 374.387,251.194 374.410,251.241 374.485 C 251.323 374.618,252.006 374.759,253.417 374.936 C 253.783 374.982,254.491 375.091,254.989 375.177 C 255.487 375.263,257.207 375.333,258.811 375.333 C 264.062 375.333,267.707 374.758,273.075 373.083 C 274.101 372.762,275.067 372.500,275.220 372.500 C 275.374 372.500,275.500 372.427,275.500 372.339 C 275.500 372.250,275.612 372.220,275.750 372.273 C 275.887 372.326,276.000 372.282,276.000 372.175 C 276.000 372.068,276.068 372.022,276.150 372.073 C 276.322 372.179,278.960 371.191,280.332 370.506 C 280.837 370.254,281.456 369.998,281.707 369.938 C 281.959 369.877,282.146 369.737,282.124 369.627 C 282.086 369.441,280.853 368.436,280.667 368.439 C 280.621 368.440,280.471 368.328,280.333 368.190 C 280.014 367.870,278.157 366.667,277.983 366.667 C 277.910 366.667,277.667 366.498,277.443 366.292 C 277.218 366.085,276.596 365.692,276.059 365.417 C 275.522 365.142,274.877 364.753,274.625 364.552 C 274.373 364.352,273.904 364.093,273.583 363.977 C 273.263 363.861,273.000 363.712,273.000 363.646 C 273.000 363.537,271.933 363.107,271.619 363.090 C 271.547 363.087,271.426 362.983,271.350 362.861 C 271.275 362.738,271.165 362.645,271.106 362.653 C 271.048 362.661,270.130 362.250,269.067 361.739 C 268.004 361.228,267.026 360.852,266.892 360.903 C 266.759 360.954,266.694 360.924,266.748 360.836 C 266.803 360.748,266.638 360.630,266.382 360.574 C 266.126 360.518,265.804 360.426,265.667 360.371 C 265.529 360.315,265.342 360.263,265.250 360.255 C 265.158 360.247,264.990 360.182,264.875 360.111 C 264.760 360.039,264.580 360.034,264.474 360.099 C 264.367 360.165,264.327 360.146,264.383 360.055 C 264.465 359.922,263.239 359.478,262.583 359.403 C 262.492 359.393,262.304 359.343,262.167 359.292 C 260.942 358.839,259.359 358.574,256.833 358.398 C 256.329 358.363,255.822 358.299,255.707 358.255 C 255.584 358.209,256.353 357.309,257.578 356.066 C 258.722 354.905,259.618 353.889,259.569 353.810 C 259.519 353.730,259.596 353.619,259.739 353.564 C 259.883 353.509,260.000 353.374,260.000 353.264 C 260.000 353.153,260.147 352.905,260.326 352.713 C 260.923 352.072,261.966 350.222,263.046 347.890 C 264.495 344.761,264.740 344.156,265.264 342.417 C 265.512 341.592,265.890 340.369,266.103 339.700 C 267.343 335.815,268.110 330.776,267.248 332.169 " stroke="none" fill="#a48c04" fill-rule="evenodd"></path><path id="path1" d="M89.658 36.759 C 89.438 36.994,89.370 37.142,89.508 37.089 C 89.724 37.006,90.264 36.333,90.114 36.333 C 90.083 36.333,89.878 36.525,89.658 36.759 M48.834 78.249 C 48.619 78.478,48.475 78.693,48.513 78.727 C 48.552 78.761,48.758 78.574,48.971 78.311 C 49.448 77.723,49.364 77.685,48.834 78.249 M79.711 102.786 C 79.964 102.825,80.339 102.824,80.544 102.784 C 80.749 102.744,80.542 102.713,80.083 102.714 C 79.625 102.716,79.457 102.748,79.711 102.786 M85.875 102.786 C 86.127 102.824,86.540 102.824,86.792 102.786 C 87.044 102.748,86.837 102.717,86.333 102.717 C 85.829 102.717,85.623 102.748,85.875 102.786 M313.208 102.786 C 313.460 102.824,313.873 102.824,314.125 102.786 C 314.377 102.748,314.171 102.717,313.667 102.717 C 313.162 102.717,312.956 102.748,313.208 102.786 M319.458 102.784 C 319.665 102.824,320.002 102.824,320.208 102.784 C 320.415 102.745,320.246 102.712,319.833 102.712 C 319.421 102.712,319.252 102.745,319.458 102.784 M394.667 178.347 L 394.250 178.687 394.792 178.422 C 395.090 178.277,395.333 178.123,395.333 178.079 C 395.333 177.913,395.068 178.020,394.667 178.347 M49.523 185.006 C 49.307 185.186,49.208 185.333,49.303 185.333 C 49.471 185.333,50.000 184.882,50.000 184.738 C 50.000 184.624,49.941 184.658,49.523 185.006 M287.833 318.083 C 287.618 318.313,287.511 318.498,287.596 318.495 C 287.738 318.490,288.425 317.667,288.287 317.667 C 288.253 317.667,288.049 317.854,287.833 318.083 M285.553 320.376 C 284.982 321.010,284.923 321.284,285.486 320.689 C 285.778 320.380,285.988 320.099,285.953 320.065 C 285.919 320.030,285.739 320.170,285.553 320.376 M124.212 344.000 C 124.212 344.412,124.245 344.581,124.284 344.375 C 124.324 344.169,124.324 343.831,124.284 343.625 C 124.245 343.419,124.212 343.587,124.212 344.000 " stroke="none" fill="#a88c04" fill-rule="evenodd"></path><path id="path2" d="M89.658 36.759 C 89.438 36.994,89.370 37.142,89.508 37.089 C 89.724 37.006,90.264 36.333,90.114 36.333 C 90.083 36.333,89.878 36.525,89.658 36.759 M48.834 78.249 C 48.619 78.478,48.475 78.693,48.513 78.727 C 48.552 78.761,48.758 78.574,48.971 78.311 C 49.448 77.723,49.364 77.685,48.834 78.249 M79.711 102.786 C 79.964 102.825,80.339 102.824,80.544 102.784 C 80.749 102.744,80.542 102.713,80.083 102.714 C 79.625 102.716,79.457 102.748,79.711 102.786 M85.875 102.786 C 86.127 102.824,86.540 102.824,86.792 102.786 C 87.044 102.748,86.837 102.717,86.333 102.717 C 85.829 102.717,85.623 102.748,85.875 102.786 M313.208 102.786 C 313.460 102.824,313.873 102.824,314.125 102.786 C 314.377 102.748,314.171 102.717,313.667 102.717 C 313.162 102.717,312.956 102.748,313.208 102.786 M319.458 102.784 C 319.665 102.824,320.002 102.824,320.208 102.784 C 320.415 102.745,320.246 102.712,319.833 102.712 C 319.421 102.712,319.252 102.745,319.458 102.784 M394.667 178.347 L 394.250 178.687 394.792 178.422 C 395.090 178.277,395.333 178.123,395.333 178.079 C 395.333 177.913,395.068 178.020,394.667 178.347 M49.523 185.006 C 49.307 185.186,49.208 185.333,49.303 185.333 C 49.471 185.333,50.000 184.882,50.000 184.738 C 50.000 184.624,49.941 184.658,49.523 185.006 M287.833 318.083 C 287.618 318.313,287.511 318.498,287.596 318.495 C 287.738 318.490,288.425 317.667,288.287 317.667 C 288.253 317.667,288.049 317.854,287.833 318.083 M285.553 320.376 C 284.982 321.010,284.923 321.284,285.486 320.689 C 285.778 320.380,285.988 320.099,285.953 320.065 C 285.919 320.030,285.739 320.170,285.553 320.376 M124.212 344.000 C 124.212 344.412,124.245 344.581,124.284 344.375 C 124.324 344.169,124.324 343.831,124.284 343.625 C 124.245 343.419,124.212 343.587,124.212 344.000 " stroke="none" fill="#a88c04" fill-rule="evenodd"></path><path id="path3" d="M89.658 36.759 C 89.438 36.994,89.370 37.142,89.508 37.089 C 89.724 37.006,90.264 36.333,90.114 36.333 C 90.083 36.333,89.878 36.525,89.658 36.759 M48.834 78.249 C 48.619 78.478,48.475 78.693,48.513 78.727 C 48.552 78.761,48.758 78.574,48.971 78.311 C 49.448 77.723,49.364 77.685,48.834 78.249 M79.711 102.786 C 79.964 102.825,80.339 102.824,80.544 102.784 C 80.749 102.744,80.542 102.713,80.083 102.714 C 79.625 102.716,79.457 102.748,79.711 102.786 M85.875 102.786 C 86.127 102.824,86.540 102.824,86.792 102.786 C 87.044 102.748,86.837 102.717,86.333 102.717 C 85.829 102.717,85.623 102.748,85.875 102.786 M313.208 102.786 C 313.460 102.824,313.873 102.824,314.125 102.786 C 314.377 102.748,314.171 102.717,313.667 102.717 C 313.162 102.717,312.956 102.748,313.208 102.786 M319.458 102.784 C 319.665 102.824,320.002 102.824,320.208 102.784 C 320.415 102.745,320.246 102.712,319.833 102.712 C 319.421 102.712,319.252 102.745,319.458 102.784 M394.667 178.347 L 394.250 178.687 394.792 178.422 C 395.090 178.277,395.333 178.123,395.333 178.079 C 395.333 177.913,395.068 178.020,394.667 178.347 M49.523 185.006 C 49.307 185.186,49.208 185.333,49.303 185.333 C 49.471 185.333,50.000 184.882,50.000 184.738 C 50.000 184.624,49.941 184.658,49.523 185.006 M287.833 318.083 C 287.618 318.313,287.511 318.498,287.596 318.495 C 287.738 318.490,288.425 317.667,288.287 317.667 C 288.253 317.667,288.049 317.854,287.833 318.083 M285.553 320.376 C 284.982 321.010,284.923 321.284,285.486 320.689 C 285.778 320.380,285.988 320.099,285.953 320.065 C 285.919 320.030,285.739 320.170,285.553 320.376 M124.212 344.000 C 124.212 344.412,124.245 344.581,124.284 344.375 C 124.324 344.169,124.324 343.831,124.284 343.625 C 124.245 343.419,124.212 343.587,124.212 344.000 " stroke="none" fill="#a88c04" fill-rule="evenodd"></path><path id="path4" d="M89.658 36.759 C 89.438 36.994,89.370 37.142,89.508 37.089 C 89.724 37.006,90.264 36.333,90.114 36.333 C 90.083 36.333,89.878 36.525,89.658 36.759 M48.834 78.249 C 48.619 78.478,48.475 78.693,48.513 78.727 C 48.552 78.761,48.758 78.574,48.971 78.311 C 49.448 77.723,49.364 77.685,48.834 78.249 M79.711 102.786 C 79.964 102.825,80.339 102.824,80.544 102.784 C 80.749 102.744,80.542 102.713,80.083 102.714 C 79.625 102.716,79.457 102.748,79.711 102.786 M85.875 102.786 C 86.127 102.824,86.540 102.824,86.792 102.786 C 87.044 102.748,86.837 102.717,86.333 102.717 C 85.829 102.717,85.623 102.748,85.875 102.786 M313.208 102.786 C 313.460 102.824,313.873 102.824,314.125 102.786 C 314.377 102.748,314.171 102.717,313.667 102.717 C 313.162 102.717,312.956 102.748,313.208 102.786 M319.458 102.784 C 319.665 102.824,320.002 102.824,320.208 102.784 C 320.415 102.745,320.246 102.712,319.833 102.712 C 319.421 102.712,319.252 102.745,319.458 102.784 M394.667 178.347 L 394.250 178.687 394.792 178.422 C 395.090 178.277,395.333 178.123,395.333 178.079 C 395.333 177.913,395.068 178.020,394.667 178.347 M49.523 185.006 C 49.307 185.186,49.208 185.333,49.303 185.333 C 49.471 185.333,50.000 184.882,50.000 184.738 C 50.000 184.624,49.941 184.658,49.523 185.006 M287.833 318.083 C 287.618 318.313,287.511 318.498,287.596 318.495 C 287.738 318.490,288.425 317.667,288.287 317.667 C 288.253 317.667,288.049 317.854,287.833 318.083 M285.553 320.376 C 284.982 321.010,284.923 321.284,285.486 320.689 C 285.778 320.380,285.988 320.099,285.953 320.065 C 285.919 320.030,285.739 320.170,285.553 320.376 M124.212 344.000 C 124.212 344.412,124.245 344.581,124.284 344.375 C 124.324 344.169,124.324 343.831,124.284 343.625 C 124.245 343.419,124.212 343.587,124.212 344.000 " stroke="none" fill="#a88c04" fill-rule="evenodd"></path></g></svg>